<svg width="300" height="300" viewBox="0 0 170 40" fill="none" xmlns="http://www.w3.org/2000/svg">
<path d="M34.89 9.11092L21.985 1.65967C21.4163 1.32467 20.7325 1.12842 20 1.12842C19.2675 1.12842 18.5838 1.32592 17.995 1.66967L18.0138 1.65967L5.10878 9.11092C3.91503 9.81217 3.12628 11.0884 3.12378 12.5484V27.4509C3.12628 28.9109 3.91753 30.1872 5.09128 30.8784L5.11128 30.8884L18.0138 38.3397C18.5825 38.6734 19.2688 38.8709 20.0013 38.8709C20.7313 38.8709 21.415 38.6734 22.0038 38.3297L21.9863 38.3397L34.8888 30.8884L33.5713 28.5934L33.5663 28.5959L20.6613 36.0472C20.4713 36.1572 20.2438 36.2247 19.9988 36.2247C19.7538 36.2247 19.5275 36.1584 19.33 36.0434L19.3363 36.0459L6.43128 28.5947C6.03253 28.3622 5.77003 27.9359 5.77003 27.4497V12.5472C5.77003 12.0609 6.03378 11.6347 6.42753 11.4047L6.43253 11.4022L19.3375 3.95092C19.5275 3.83842 19.755 3.77217 20 3.77217C20.245 3.77217 20.4713 3.83842 20.6688 3.95217L20.6613 3.94967L33.5663 11.4009C34.0832 10.5066 34.89 9.11092 34.89 9.11092Z" fill="#154880"/>
<path d="M27.6174 24.3136H26.6699C26.4349 24.3136 26.2162 24.3748 26.0262 24.4823L26.0337 24.4773L20.3162 27.6173L13.7137 23.8061V16.2036L20.3162 12.3898L26.0362 15.5198C26.2187 15.6223 26.4399 15.6836 26.6712 15.6836H27.6187C27.9849 15.6836 28.2799 15.3848 28.2799 15.0198V14.1248C28.2799 13.8748 28.1424 13.6586 27.9412 13.5461L27.9362 13.5436L21.5887 10.0723C21.2224 9.86731 20.7824 9.74731 20.3199 9.74731C19.8324 9.74731 19.3749 9.87981 18.9824 10.1086L18.9949 10.1011L12.3937 13.9123C11.5987 14.3811 11.0737 15.2311 11.0699 16.2048V23.8073C11.0699 24.7811 11.5974 25.6336 12.3812 26.0923L12.3924 26.0998L18.9937 29.9111C19.3749 30.1336 19.8312 30.2661 20.3199 30.2661C20.7862 30.2661 21.2237 30.1436 21.6037 29.9348L21.5887 29.9423L27.9387 26.4586C28.1462 26.3448 28.2837 26.1273 28.2837 25.8773V24.9823C28.2837 24.6161 27.9862 24.3211 27.6224 24.3211L27.6174 24.3136Z" fill="#014E3C"/>
<path d="M45.495 19.72C45.495 18.68 45.72 17.755 46.17 16.945C46.62 16.125 47.245 15.49 48.045 15.04C48.855 14.58 49.77 14.35 50.79 14.35C52.04 14.35 53.11 14.68 54 15.34C54.89 16 55.485 16.9 55.785 18.04H52.965C52.755 17.6 52.455 17.265 52.065 17.035C51.685 16.805 51.25 16.69 50.76 16.69C49.97 16.69 49.33 16.965 48.84 17.515C48.35 18.065 48.105 18.8 48.105 19.72C48.105 20.64 48.35 21.375 48.84 21.925C49.33 22.475 49.97 22.75 50.76 22.75C51.25 22.75 51.685 22.635 52.065 22.405C52.455 22.175 52.755 21.84 52.965 21.4H55.785C55.485 22.54 54.89 23.44 54 24.1C53.11 24.75 52.04 25.075 50.79 25.075C49.77 25.075 48.855 24.85 48.045 24.4C47.245 23.94 46.62 23.305 46.17 22.495C45.72 21.685 45.495 20.76 45.495 19.72ZM62.5008 16.54C63.4608 16.54 64.2308 16.86 64.8108 17.5C65.3908 18.13 65.6808 19 65.6808 20.11V25H63.1308V20.455C63.1308 19.895 62.9858 19.46 62.6958 19.15C62.4058 18.84 62.0158 18.685 61.5258 18.685C61.0358 18.685 60.6458 18.84 60.3558 19.15C60.0658 19.46 59.9208 19.895 59.9208 20.455V25H57.3558V13.9H59.9208V17.755C60.1808 17.385 60.5358 17.09 60.9858 16.87C61.4358 16.65 61.9408 16.54 62.5008 16.54ZM75.3532 20.68C75.3532 20.92 75.3382 21.17 75.3082 21.43H69.5032C69.5432 21.95 69.7082 22.35 69.9982 22.63C70.2982 22.9 70.6632 23.035 71.0932 23.035C71.7332 23.035 72.1782 22.765 72.4282 22.225H75.1582C75.0182 22.775 74.7632 23.27 74.3932 23.71C74.0332 24.15 73.5782 24.495 73.0282 24.745C72.4782 24.995 71.8632 25.12 71.1832 25.12C70.3632 25.12 69.6332 24.945 68.9932 24.595C68.3532 24.245 67.8532 23.745 67.4932 23.095C67.1332 22.445 66.9532 21.685 66.9532 20.815C66.9532 19.945 67.1282 19.185 67.4782 18.535C67.8382 17.885 68.3382 17.385 68.9782 17.035C69.6182 16.685 70.3532 16.51 71.1832 16.51C71.9932 16.51 72.7132 16.68 73.3432 17.02C73.9732 17.36 74.4632 17.845 74.8132 18.475C75.1732 19.105 75.3532 19.84 75.3532 20.68ZM72.7282 20.005C72.7282 19.565 72.5782 19.215 72.2782 18.955C71.9782 18.695 71.6032 18.565 71.1532 18.565C70.7232 18.565 70.3582 18.69 70.0582 18.94C69.7682 19.19 69.5882 19.545 69.5182 20.005H72.7282ZM76.1964 20.815C76.1964 19.945 76.3714 19.185 76.7214 18.535C77.0814 17.885 77.5764 17.385 78.2064 17.035C78.8464 16.685 79.5764 16.51 80.3964 16.51C81.4464 16.51 82.3214 16.785 83.0214 17.335C83.7314 17.885 84.1964 18.66 84.4164 19.66H81.6864C81.4564 19.02 81.0114 18.7 80.3514 18.7C79.8814 18.7 79.5064 18.885 79.2264 19.255C78.9464 19.615 78.8064 20.135 78.8064 20.815C78.8064 21.495 78.9464 22.02 79.2264 22.39C79.5064 22.75 79.8814 22.93 80.3514 22.93C81.0114 22.93 81.4564 22.61 81.6864 21.97H84.4164C84.1964 22.95 83.7314 23.72 83.0214 24.28C82.3114 24.84 81.4364 25.12 80.3964 25.12C79.5764 25.12 78.8464 24.945 78.2064 24.595C77.5764 24.245 77.0814 23.745 76.7214 23.095C76.3714 22.445 76.1964 21.685 76.1964 20.815ZM85.2784 20.8C85.2784 19.94 85.4384 19.185 85.7584 18.535C86.0884 17.885 86.5334 17.385 87.0934 17.035C87.6534 16.685 88.2784 16.51 88.9684 16.51C89.5584 16.51 90.0734 16.63 90.5134 16.87C90.9634 17.11 91.3084 17.425 91.5484 17.815V16.63H94.1134V25H91.5484V23.815C91.2984 24.205 90.9484 24.52 90.4984 24.76C90.0584 25 89.5434 25.12 88.9534 25.12C88.2734 25.12 87.6534 24.945 87.0934 24.595C86.5334 24.235 86.0884 23.73 85.7584 23.08C85.4384 22.42 85.2784 21.66 85.2784 20.8ZM91.5484 20.815C91.5484 20.175 91.3684 19.67 91.0084 19.3C90.6584 18.93 90.2284 18.745 89.7184 18.745C89.2084 18.745 88.7734 18.93 88.4134 19.3C88.0634 19.66 87.8884 20.16 87.8884 20.8C87.8884 21.44 88.0634 21.95 88.4134 22.33C88.7734 22.7 89.2084 22.885 89.7184 22.885C90.2284 22.885 90.6584 22.7 91.0084 22.33C91.3684 21.96 91.5484 21.455 91.5484 20.815ZM107.698 16.63L102.448 28.975H99.6878L101.608 24.715L98.2028 16.63H101.068L103.003 21.865L104.923 16.63H107.698ZM111.369 19.72C111.369 18.68 111.594 17.755 112.044 16.945C112.494 16.125 113.119 15.49 113.919 15.04C114.729 14.58 115.644 14.35 116.664 14.35C117.914 14.35 118.984 14.68 119.874 15.34C120.764 16 121.359 16.9 121.659 18.04H118.839C118.629 17.6 118.329 17.265 117.939 17.035C117.559 16.805 117.124 16.69 116.634 16.69C115.844 16.69 115.204 16.965 114.714 17.515C114.224 18.065 113.979 18.8 113.979 19.72C113.979 20.64 114.224 21.375 114.714 21.925C115.204 22.475 115.844 22.75 116.634 22.75C117.124 22.75 117.559 22.635 117.939 22.405C118.329 22.175 118.629 21.84 118.839 21.4H121.659C121.359 22.54 120.764 23.44 119.874 24.1C118.984 24.75 117.914 25.075 116.664 25.075C115.644 25.075 114.729 24.85 113.919 24.4C113.119 23.94 112.494 23.305 112.044 22.495C111.594 21.685 111.369 20.76 111.369 19.72ZM131.495 16.63V25H128.93V23.86C128.67 24.23 128.315 24.53 127.865 24.76C127.425 24.98 126.935 25.09 126.395 25.09C125.755 25.09 125.19 24.95 124.7 24.67C124.21 24.38 123.83 23.965 123.56 23.425C123.29 22.885 123.155 22.25 123.155 21.52V16.63H125.705V21.175C125.705 21.735 125.85 22.17 126.14 22.48C126.43 22.79 126.82 22.945 127.31 22.945C127.81 22.945 128.205 22.79 128.495 22.48C128.785 22.17 128.93 21.735 128.93 21.175V16.63H131.495ZM132.827 20.8C132.827 19.94 132.987 19.185 133.307 18.535C133.637 17.885 134.082 17.385 134.642 17.035C135.202 16.685 135.827 16.51 136.517 16.51C137.107 16.51 137.622 16.63 138.062 16.87C138.512 17.11 138.857 17.425 139.097 17.815V16.63H141.662V25H139.097V23.815C138.847 24.205 138.497 24.52 138.047 24.76C137.607 25 137.092 25.12 136.502 25.12C135.822 25.12 135.202 24.945 134.642 24.595C134.082 24.235 133.637 23.73 133.307 23.08C132.987 22.42 132.827 21.66 132.827 20.8ZM139.097 20.815C139.097 20.175 138.917 19.67 138.557 19.3C138.207 18.93 137.777 18.745 137.267 18.745C136.757 18.745 136.322 18.93 135.962 19.3C135.612 19.66 135.437 20.16 135.437 20.8C135.437 21.44 135.612 21.95 135.962 22.33C136.322 22.7 136.757 22.885 137.267 22.885C137.777 22.885 138.207 22.7 138.557 22.33C138.917 21.96 139.097 21.455 139.097 20.815ZM143.008 20.8C143.008 19.94 143.168 19.185 143.488 18.535C143.818 17.885 144.263 17.385 144.823 17.035C145.383 16.685 146.008 16.51 146.698 16.51C147.248 16.51 147.748 16.625 148.198 16.855C148.658 17.085 149.018 17.395 149.278 17.785V13.9H151.843V25H149.278V23.8C149.038 24.2 148.693 24.52 148.243 24.76C147.803 25 147.288 25.12 146.698 25.12C146.008 25.12 145.383 24.945 144.823 24.595C144.263 24.235 143.818 23.73 143.488 23.08C143.168 22.42 143.008 21.66 143.008 20.8ZM149.278 20.815C149.278 20.175 149.098 19.67 148.738 19.3C148.388 18.93 147.958 18.745 147.448 18.745C146.938 18.745 146.503 18.93 146.143 19.3C145.793 19.66 145.618 20.16 145.618 20.8C145.618 21.44 145.793 21.95 146.143 22.33C146.503 22.7 146.938 22.885 147.448 22.885C147.958 22.885 148.388 22.7 148.738 22.33C149.098 21.96 149.278 21.455 149.278 20.815ZM156.264 18.025C156.564 17.565 156.939 17.205 157.389 16.945C157.839 16.675 158.339 16.54 158.889 16.54V19.255H158.184C157.544 19.255 157.064 19.395 156.744 19.675C156.424 19.945 156.264 20.425 156.264 21.115V25H153.699V16.63H156.264V18.025ZM159.605 20.8C159.605 19.94 159.765 19.185 160.085 18.535C160.415 17.885 160.86 17.385 161.42 17.035C161.98 16.685 162.605 16.51 163.295 16.51C163.885 16.51 164.4 16.63 164.84 16.87C165.29 17.11 165.635 17.425 165.875 17.815V16.63H168.44V25H165.875V23.815C165.625 24.205 165.275 24.52 164.825 24.76C164.385 25 163.87 25.12 163.28 25.12C162.6 25.12 161.98 24.945 161.42 24.595C160.86 24.235 160.415 23.73 160.085 23.08C159.765 22.42 159.605 21.66 159.605 20.8ZM165.875 20.815C165.875 20.175 165.695 19.67 165.335 19.3C164.985 18.93 164.555 18.745 164.045 18.745C163.535 18.745 163.1 18.93 162.74 19.3C162.39 19.66 162.215 20.16 162.215 20.8C162.215 21.44 162.39 21.95 162.74 22.33C163.1 22.7 163.535 22.885 164.045 22.885C164.555 22.885 164.985 22.7 165.335 22.33C165.695 21.96 165.875 21.455 165.875 20.815Z" fill="#154880"/>
</svg>
