<svg width="40" height="38" viewBox="0 0 40 38" fill="none" xmlns="http://www.w3.org/2000/svg">
<rect x="0.0874023" y="0.123795" width="38.9915" height="37.5928" rx="8" fill="#154880" fill-opacity="0.1"/>
<g clip-path="url(#clip0_292_5885)">
<path d="M28.1139 10.6968H25.6769V9.522C25.6769 8.87588 25.1286 8.34723 24.4585 8.34723H14.7106C14.0404 8.34723 13.4921 8.87588 13.4921 9.522V10.6968H11.0551C9.7148 10.6968 8.61816 11.7541 8.61816 13.0463V14.2211C8.61816 17.2168 10.9577 19.6603 13.9673 20.0245C14.735 21.7867 16.3799 23.1142 18.366 23.5018V27.1436H14.7106C14.0404 27.1436 13.4921 27.6723 13.4921 28.3184C13.4921 28.9645 14.0404 29.4932 14.7106 29.4932H24.4585C25.1286 29.4932 25.6769 28.9645 25.6769 28.3184C25.6769 27.6723 25.1286 27.1436 24.4585 27.1436H20.803V23.5018C22.7891 23.1142 24.4341 21.7867 25.2017 20.0245C28.2114 19.6603 30.5509 17.2168 30.5509 14.2211V13.0463C30.5509 11.7541 29.4542 10.6968 28.1139 10.6968ZM11.0551 14.2211V13.0463H13.4921V17.534C12.0787 17.0406 11.0551 15.7483 11.0551 14.2211ZM28.1139 14.2211C28.1139 15.7483 27.0904 17.0406 25.6769 17.534V13.0463H28.1139V14.2211Z" fill="#154880"/>
</g>
<defs>
<clipPath id="clip0_292_5885">
<rect width="29.2436" height="28.1946" fill="white" transform="translate(4.9624 4.82291)"/>
</clipPath>
</defs>
</svg>
