<svg width="40" height="39" viewBox="0 0 40 39" fill="none" xmlns="http://www.w3.org/2000/svg">
<rect x="0.0874023" y="0.902206" width="38.9915" height="37.5928" rx="8" fill="#154880" fill-opacity="0.1"/>
<path d="M19.5843 7.95085C14.4667 7.95085 9.83643 11.7336 9.83643 17.584C9.83643 21.3198 12.8217 25.7135 18.7801 30.7767C19.2431 31.1644 19.9377 31.1644 20.4007 30.7767C26.3469 25.7135 29.3322 21.3198 29.3322 17.584C29.3322 11.7336 24.7019 7.95085 19.5843 7.95085ZM19.5843 19.6986C18.244 19.6986 17.1473 18.6413 17.1473 17.3491C17.1473 16.0568 18.244 14.9995 19.5843 14.9995C20.9246 14.9995 22.0213 16.0568 22.0213 17.3491C22.0213 18.6413 20.9246 19.6986 19.5843 19.6986Z" fill="#154880"/>
</svg>
