<svg width="40" height="39" viewBox="0 0 40 39" fill="none" xmlns="http://www.w3.org/2000/svg">
<rect x="0.0874023" y="0.946579" width="38.9915" height="37.5928" rx="8" fill="#154880" fill-opacity="0.1"/>
<path d="M31.0502 19.0499L20.291 8.67662C19.8401 8.24196 19.2187 7.99525 18.5729 7.99525H9.83638C8.49605 7.99525 7.39941 9.05255 7.39941 10.3448V18.7679C7.39941 19.3906 7.6553 19.9897 8.11832 20.4244L18.8775 30.7977C19.8279 31.714 21.3754 31.714 22.3258 30.7977L31.0624 22.3745C32.0128 21.4582 32.0128 19.978 31.0502 19.0499ZM12.8826 15.0439C11.8712 15.0439 11.0549 14.2568 11.0549 13.2817C11.0549 12.3067 11.8712 11.5196 12.8826 11.5196C13.8939 11.5196 14.7103 12.3067 14.7103 13.2817C14.7103 14.2568 13.8939 15.0439 12.8826 15.0439Z" fill="#154880"/>
</svg>
