<svg width="40" height="38" viewBox="0 0 40 38" fill="none" xmlns="http://www.w3.org/2000/svg">
<rect x="0.0874023" width="38.9915" height="37.5928" rx="8" fill="#154880" fill-opacity="0.1"/>
<g clip-path="url(#clip0_292_5877)">
<path d="M26.8952 17.0108V11.7478C26.8952 10.4555 25.7985 9.39822 24.4582 9.39822H9.83638C8.49605 9.39822 7.39941 10.4555 7.39941 11.7478V25.8451C7.39941 27.1373 8.49605 28.1946 9.83638 28.1946H24.4582C25.7985 28.1946 26.8952 27.1373 26.8952 25.8451V20.5821L30.7334 24.2591C31.1111 24.6351 31.7691 24.3649 31.7691 23.848V13.7449C31.7691 13.228 31.1111 12.9578 30.7334 13.3337L26.8952 17.0108ZM17.1473 14.0973C18.4876 14.0973 19.5843 15.1546 19.5843 16.4469C19.5843 17.7391 18.4876 18.7964 17.1473 18.7964C15.807 18.7964 14.7103 17.7391 14.7103 16.4469C14.7103 15.1546 15.807 14.0973 17.1473 14.0973ZM22.0212 23.4955H12.2733V22.8259C12.2733 21.8743 12.8582 21.0285 13.7599 20.6526C14.7956 20.2179 15.941 19.9712 17.1473 19.9712C18.3536 19.9712 19.499 20.2179 20.5347 20.6526C21.4363 21.0285 22.0212 21.8743 22.0212 22.8259V23.4955Z" fill="#154880"/>
</g>
<defs>
<clipPath id="clip0_292_5877">
<rect width="29.2436" height="28.1946" fill="white" transform="translate(4.9624 4.69913)"/>
</clipPath>
</defs>
</svg>
