<svg width="26" height="25" viewBox="0 0 26 25" fill="none" xmlns="http://www.w3.org/2000/svg">
<rect x="0.0804443" y="0.444092" width="25.1416" height="24.4979" rx="8" fill="#154880" fill-opacity="0.1"/>
<g clip-path="url(#clip0_292_5713)">
<path d="M18.1509 7.3341H16.5796V6.56854C16.5796 6.14748 16.226 5.80298 15.7939 5.80298H9.50846C9.07634 5.80298 8.72278 6.14748 8.72278 6.56854V7.3341H7.15143C6.28719 7.3341 5.58008 8.0231 5.58008 8.86522V9.63078C5.58008 11.583 7.08858 13.1753 9.0292 13.4126C9.52417 14.561 10.5848 15.4261 11.8655 15.6787V18.0519H9.50846C9.07634 18.0519 8.72278 18.3964 8.72278 18.8175C8.72278 19.2386 9.07634 19.5831 9.50846 19.5831H15.7939C16.226 19.5831 16.5796 19.2386 16.5796 18.8175C16.5796 18.3964 16.226 18.0519 15.7939 18.0519H13.4368V15.6787C14.7175 15.4261 15.7782 14.561 16.2731 13.4126C18.2138 13.1753 19.7223 11.583 19.7223 9.63078V8.86522C19.7223 8.0231 19.0151 7.3341 18.1509 7.3341ZM7.15143 9.63078V8.86522H8.72278V11.7897C7.8114 11.4681 7.15143 10.626 7.15143 9.63078ZM18.1509 9.63078C18.1509 10.626 17.4909 11.4681 16.5796 11.7897V8.86522H18.1509V9.63078Z" fill="#154880"/>
</g>
<defs>
<clipPath id="clip0_292_5713">
<rect width="18.8562" height="18.3734" fill="white" transform="translate(3.22302 3.50635)"/>
</clipPath>
</defs>
</svg>
