<svg width="25" height="24" viewBox="0 0 25 24" fill="none" xmlns="http://www.w3.org/2000/svg">
<path d="M12.1111 2.03979C6.61108 2.03979 2.11108 6.5298 2.11108 12.0598C2.11108 17.0598 5.77108 21.2098 10.5511 21.9598V14.9598H8.01108V12.0598H10.5511V9.8498C10.5511 7.3398 12.0411 5.95979 14.3311 5.95979C15.4211 5.95979 16.5611 6.1498 16.5611 6.1498V8.61979H15.3011C14.0611 8.61979 13.6711 9.3898 13.6711 10.1798V12.0598H16.4511L16.0011 14.9598H13.6711V21.9598C16.0275 21.5876 18.1733 20.3853 19.721 18.5699C21.2687 16.7544 22.1164 14.4454 22.1111 12.0598C22.1111 6.5298 17.6111 2.03979 12.1111 2.03979Z" fill="#5C5C5C"/>
</svg>
