<svg xmlns="http://www.w3.org/2000/svg" viewBox="0 0 1853 998.65"><defs><style>.cls-1{fill:#91c3e3;}.cls-10,.cls-14,.cls-15,.cls-2,.cls-4,.cls-5,.cls-6{fill:none;}.cls-15,.cls-2{stroke:#fff;}.cls-10,.cls-11,.cls-13,.cls-14,.cls-15,.cls-2,.cls-4,.cls-5,.cls-6{stroke-miterlimit:10;}.cls-3{fill:#d3e7f4;}.cls-4{stroke:#85bddf;}.cls-4,.cls-5{stroke-width:4px;}.cls-5{stroke:#71b2db;}.cls-10,.cls-11,.cls-13,.cls-14,.cls-6{stroke:#000;}.cls-6{stroke-width:9px;}.cls-7{fill:#2f88a3;}.cls-8{fill:#2388c6;}.cls-9{fill:#263238;}.cls-10{stroke-width:3px;}.cls-11,.cls-13,.cls-14,.cls-15{stroke-width:2px;}.cls-12{fill:#010202;}.cls-13{fill:#fff;}.cls-16{fill:#0e3c7f;opacity:0.5;}</style></defs><g id="Capa_5" data-name="Capa 5"><path class="cls-1" d="M1603.72,995.27a132.57,132.57,0,0,1-10-75.08c4-12,14.31-19.82,24.83-19.51,13.94.41,21.3,15,22.4,17.17a34.34,34.34,0,0,1,3.44,18.13h7q.59-182.11,1.16-364.24c9.32-58.56,28.64-96.58,50.19-97.91,14-.86,25.59,14,32.38,22.78,21.73,28,27,62.33,24.26,155.74-.78,26.79-2.31,61.5-5.48,102.13L1775,735.7c10.65-9.58,23.79-18.38,33.65-14.48,19.49,7.69,15.15,60.57,13.31,82.95-1.64,19.91-5.25,39.63-24.26,107.61-7,25.09-13.18,45.93-17.61,60.65-4.61,10.85-4,14.66-2.35,16.05,4.21,3.62,16.19-8.26,39.91-15.26,11.54-3.41,24.64-7.27,31.31-.79,6.12,6,3.7,17.63,2.74,21.53Z"/><line class="cls-2" x1="1693.62" y1="995.27" x2="1705.1" y2="588.04"/><line class="cls-2" x1="1695.85" y1="916.24" x2="1783.36" y2="824.39"/><line class="cls-2" x1="1742.14" y1="867.65" x2="1755.18" y2="817.61"/><line class="cls-2" x1="1634.66" y1="995.27" x2="1625.79" y2="981.43"/><path class="cls-1" d="M1.1,995.52A20.33,20.33,0,0,1,1,982.61c2.52-7.08,9.48-12.08,16.09-13.53,15.4-3.37,23.91,13.65,51.22,17.25a73.47,73.47,0,0,0,9.19.62c-.91-4.68-2.46-12-5-20.91A262.24,262.24,0,0,0,64,940.48C57.61,924.16,53.32,904.9,46.75,875c-15.82-72-15.8-99.47-14.61-117.39,1.5-22.45,5.07-33.23,12.78-36.26,10-3.93,22.81,6.79,26.61,10.17L101,755.65c-2.25-31.52-3.58-59.8-4.37-84.13-.62-19.45-1.44-53,1.28-95.48,2-31.27,5.21-56.23,20.61-80.61,12.07-19.1,21.47-21.76,26.61-22.17,12.51-1,22.47,9.59,28.17,15.65,16.29,17.31,19.22,39,19.83,49.57a2712.88,2712.88,0,0,1,12.78,275.09q-.28,63.31-3.33,122.86l8-.91c-.28-2.07-2-16.35,8.09-26.87,7-7.23,20.63-13.81,31.44-7.43,9.45,5.58,10.68,17.54,10.82,19.17q-13.43,37.17-26.87,74.35Z"/><line class="cls-2" x1="146.79" y1="903.96" x2="69.71" y2="824.13"/><line class="cls-2" x1="114.68" y1="870.7" x2="97.49" y2="815.91"/><line class="cls-2" x1="146.79" y1="903.96" x2="155.01" y2="760.74"/></g><g id="Capa_4" data-name="Capa 4"><path class="cls-3" d="M438.84,998.65q-62.1-179.22-124.18-358.43C335,594,370.41,530.56,432.05,471.7a511.77,511.77,0,0,1,68.56-55A196.6,196.6,0,0,1,562,390.83c38.72-8.88,65.12-1.94,104.81.34,27.18,1.57,66.71,1.3,115.88-8.26A356.93,356.93,0,0,0,823.88,354c75.14-61,88.75-123.34,149.74-203.21A579.57,579.57,0,0,1,1062.84,58a220.29,220.29,0,0,1,147.52-36.79,298.09,298.09,0,0,1,183.52,80.61c39.9,34.42,62.9,67,75.91,88.83,14.77,24.74,28.48,55.35,33.65,66.91,8,17.85,14,33,18.22,44l47.52,169.68a519.73,519.73,0,0,1,8,71.62c8.8,210.72-113.74,376.11-184.09,455.86Z"/><line class="cls-4" x1="504.84" y1="427.43" x2="1394.14" y2="427.7"/><line class="cls-5" x1="504.77" y1="431.05" x2="1394.07" y2="431.31"/><line class="cls-4" x1="499.52" y1="819.65" x2="1388.82" y2="819.91"/><line class="cls-5" x1="499.46" y1="823.26" x2="1388.76" y2="823.52"/></g><g id="Capa_2" data-name="Capa 2"><line class="cls-6" x1="581.53" y1="342.04" x2="722.79" y2="213.3"/><line class="cls-6" x1="722.79" y1="213.3" x2="865.62" y2="177.3"/><line class="cls-6" x1="1006.49" y1="280.22" x2="865.62" y2="177.3"/><line class="cls-6" x1="1146.31" y1="111.17" x2="1006.49" y2="280.22"/><line class="cls-6" x1="1288.23" y1="340.22" x2="1146.31" y2="111.17"/><circle class="cls-7" cx="581.53" cy="342.04" r="14.09"/><circle class="cls-7" cx="865.62" cy="177.3" r="14.09"/><circle class="cls-7" cx="722.79" cy="213.3" r="14.09"/><circle class="cls-7" cx="1006.49" cy="280.22" r="14.09"/><circle class="cls-7" cx="1146.31" cy="111.17" r="14.09"/><circle class="cls-7" cx="1288.23" cy="340.22" r="14.09"/></g><g id="Capa_3" data-name="Capa 3"><rect class="cls-8" x="911.34" y="382.91" width="69.26" height="222.22"/><rect class="cls-8" x="1091.92" y="564.7" width="69.26" height="111.72"/><rect class="cls-9" x="1091.92" y="676.41" width="69.26" height="90.65"/><rect class="cls-9" x="1001.6" y="633.53" width="69.26" height="133.53"/><rect class="cls-9" x="911.34" y="605.13" width="69.26" height="161.93"/><rect class="cls-9" x="735.61" y="654.97" width="66.23" height="112.09"/><rect class="cls-9" x="825.93" y="720.43" width="66.17" height="46.63"/><rect class="cls-8" x="1001.6" y="590.52" width="69.26" height="43.01"/><rect class="cls-8" x="825.93" y="521.36" width="66.17" height="199.08"/><line class="cls-10" x1="723.67" y1="765.58" x2="1171.68" y2="765.63"/><line class="cls-10" x1="1170.14" y1="755.41" x2="1170.18" y2="767.07"/><line class="cls-10" x1="1081.37" y1="755.41" x2="1081.41" y2="767.07"/><line class="cls-10" x1="991.08" y1="754.36" x2="991.11" y2="766.02"/><line class="cls-10" x1="901.7" y1="754.65" x2="901.73" y2="766.3"/><line class="cls-10" x1="813.86" y1="754.36" x2="813.9" y2="766.02"/><line class="cls-10" x1="725.16" y1="755.4" x2="725.19" y2="767.05"/><rect class="cls-8" x="735.61" y="623.59" width="66.23" height="84.52"/></g><g id="Capa_7" data-name="Capa 7"><path class="cls-9" d="M591.9,998.72c-.36-2.73-7.36-62.86,37-96.33,23.61-17.82,49.52-18.84,59.61-18.68v31.2c-5.67.33-28.92,2.32-47.22,21.39C617,961.6,622.37,995.1,623,998.72Z"/><path class="cls-8" d="M782.66,998.85c2.28-45.19-16.23-85.8-49.3-104.28-16.41-9.18-33-11-44.87-10.86v31.2c5,.21,29,1.72,47.22,21.39,23.81,25.72,16.53,59.55,15.84,62.48Z"/><path class="cls-9" d="M825.9,998.72c-.36-2.73-7.36-62.85,37-96.33,23.61-17.82,49.52-18.84,59.61-18.68v31.21c-5.67.32-28.92,2.31-47.22,21.39C851,961.6,856.37,995.1,857,998.72Z"/><path class="cls-8" d="M1016.66,998.85c2.28-45.19-16.23-85.8-49.3-104.28-16.41-9.17-33-11-44.87-10.86v31.21c5,.2,29,1.72,47.22,21.39,23.81,25.72,16.53,59.54,15.84,62.48Z"/><path class="cls-9" d="M1059.9,998.72c-.36-2.73-7.36-62.85,37-96.32,23.61-17.83,49.52-18.84,59.61-18.69v31.21c-5.67.33-28.92,2.31-47.22,21.39-24.27,25.29-18.9,58.79-18.26,62.41Z"/><path class="cls-8" d="M1250.66,998.85c2.28-45.19-16.23-85.79-49.3-104.28-16.41-9.17-33-11-44.87-10.86v31.21c5,.21,29,1.72,47.22,21.39,23.81,25.72,16.53,59.54,15.84,62.48Z"/></g><g id="Capa_8" data-name="Capa 8"><path class="cls-11" d="M231.52,331.75c-12.26,12.38-11.92,30.95-11.28,38.71-13.11,7.4-20.31,16.14-24.46,23.48-19.63,34.75,2.95,84.18,6.07,90.78,10.19,21.62,21.62,31,18,46.57-1.84,7.9-6.31,11.92-17.22,22.7-25.22,24.91-41.72,41.21-52,56.73C144,620.58,136.05,636,132.2,658.85c-.72,3.17-13.61,64.89,30.92,107.6,33.69,32.3,85.81,39.91,129.9,18.4l108.3-220.77c2.69-33.46-5.13-54.27-12.43-66.83-9.68-16.67-23.64-33.89-23.65-33.89-11.46-14.13-16.6-17.68-20.56-28.72-1.49-4.14-6.6-18.37-1.18-32.48,2.58-6.71,4.8-6.28,7.44-13.31,5.36-14.29.62-28,0-29.73-5.27-14.57-17.12-21.55-25.05-26.22-13.75-8.1-26.36-9.5-37.26-10.59C266.26,320.07,245.17,318,231.52,331.75Z"/><path class="cls-9" d="M1405.1,997.09l6.78-167c13.24,14.76,26.37,20.2,33.76,22.45,8.22,2.51,15.36,2.9,28.85,3.64a236.37,236.37,0,0,0,31.28-.18c27-2.23,50.59-11.3,65.24-18.08q9.13,79.56,18.26,159.13Z"/><path class="cls-2" d="M1513.62,977.78a125.84,125.84,0,0,1,19.82-34.43q2.1-2.6,4.22-4.93a125.61,125.61,0,0,1,18.74-17"/><line class="cls-2" x1="1472.73" y1="997.09" x2="1451.79" y2="969.5"/><line class="cls-2" x1="1462.26" y1="997.09" x2="1441.23" y2="973.61"/><path class="cls-2" d="M1559,879.89a23.35,23.35,0,0,0,14.48,15.26"/><line class="cls-2" x1="1573.49" y1="895.15" x2="1583.86" y2="997.09"/><path class="cls-2" d="M1430.47,850v9.78c3.38,1.85,7.1,3.7,11.15,5.48a145.5,145.5,0,0,0,16.6,6.1l.42-13.15-.42,13.15,17.83.55c-.06-3.2-.13-6.39-.19-9.59.06,3.2.13,6.39.19,9.59h31.7l2.74-4.11,7.24-.59v-4.5l-4.11-1.76V855.2"/><polyline class="cls-2" points="1527.97 856.22 1527.97 867.7 1546.49 867.7 1546.49 863.52 1559.01 863.78 1559.01 851.33 1559.04 880.08"/><path class="cls-12" d="M232.49,998.65c4.39-22.8,9-41.94,12.91-56.74,10-37.76,10.06-27.35,12.91-43,1.86-10.19,2.39-17.7,7.44-20,6-2.69,12.2,4.86,24.26,10.57,12.63,6,23.22,5.94,43.83,5.87,13.53-.05,30.83-.11,50.47-7.83s25.8-16.83,32.87-13.3c6,3,5.19,11.43,10.57,34.82,3.72,16.2,5.18,16.77,8.61,30.53a260.29,260.29,0,0,1,7.43,59.08Z"/><path class="cls-2" d="M309.18,962.26q-10.55-9.88-22.12-20-10.8-9.42-21.31-18"/><path class="cls-2" d="M377.66,960.7a172.92,172.92,0,0,1-34,34.82"/><path class="cls-2" d="M403.1,961.09a149.25,149.25,0,0,0-59.48,34.43"/><path class="cls-13" d="M166.72,999l-10.09-34,7-15.26,3.72-15.66,10.37-27.58,6.85-23.48,10.37-35,14.67-43.44,6.59-31.56,16.57-54.65q2.92-10.9,5.86-21.79l-9.39-22.3L240,693.74Q253.2,718.39,266.42,743l26,48.43-.52,12.91-2.48,15-7.17,15.26-17.87,37L262.09,886a116.82,116.82,0,0,0,34.55,11.84c1.67.29,3,.48,4.11.64a195,195,0,0,0,36.2,1.68c20.66-.94,36.64-4.92,52.47-8.88,11.84-3,21.6-6,28.53-8.31q-5.47-37.37-11-74.73l-.39-66.92L418.93,719l.6-28.72a166,166,0,0,1-7.14-36.88,173,173,0,0,1,.49-32.28,173,173,0,0,0-.49,32.28,166,166,0,0,0,7.14,36.88l89.4,52.19h20.61l14.09-23.35,26.61-91,10.17-50.55V546.18l25.83-36.52,2.87-7.56-.66-10.83-16.37-12.68q.61-6.24,1.24-12.49l6.39-9.39q1.69-3,3.4-6c1.53-3.17.89-6.44-1-7.7s-4.23-.31-4.7-.13a8.19,8.19,0,0,0-3.78,3.39c-2,3-4.61,5.65-6.39,8.81-2.63,4.65-5.89,10.14-10,16.89a203,203,0,0,1,.38,22.16c.12-11.52.07-14.19-1.31-18.11a24.12,24.12,0,0,0-5.59-9c-.84-.84-5.24-5.26-7.54-4-1.29.69-1.51,3-1.69,4.79a13.39,13.39,0,0,0,.31,4.41,44.12,44.12,0,0,1,.44,10.82,43.53,43.53,0,0,1-1.77,9.21l-1.85,3.64-2.77,4.79v48.69c-1.54,7.72-4.13,19.32-8.35,33.13-5.11,16.71-9.74,27.26-17.19,45.66-4.88,12-11.83,29.58-19.92,51.38-10.77-10.8-19.39-19.7-25.16-25.71C459.52,627,458.18,624,445.62,612.57c-2-1.85-10.41-9.4-20.35-19.31-2.92-2.91-6.58-6.63-11-11.48-3.86-4.28-7-8-9.39-10.95a41.24,41.24,0,0,0-11.48-5.22c-16.33-4.54-26.94,3.85-39.13-2.09a25.7,25.7,0,0,1-9.91-8.87c-2.3-4.5-6-9.87-12-11.48-4.36-1.18-7.28.38-9.91-1.56-2.17-1.6-4.07-5.53-2.09-16.18A62.9,62.9,0,0,0,333,506.15c5.12-12.41,3.89-22.41,3.14-48.52-.33-11.32-.82-24.75-1.57-39.92-14.09,2-33.26-5.87-33.26-5.87l-26.61-10.56L259,392.67h-7.7l-1.56,19.17,12.71,16.44v11.35L243,456.84H225.82V472.1a86.31,86.31,0,0,0,5.48,8.42c2.67,3.52,4,5.29,5.77,6.25,4.63,2.5,7.44-.36,12.32.89,5.81,1.49,5.43,6.65,14.66,16.91A73.39,73.39,0,0,0,277.1,516a68.74,68.74,0,0,0,12.52,6.79q-.6,11.48-1.19,22.95l-10.81,14.09q-3.08,8.21-6.14,16.42L199,607.65,187.74,670.4l-10.37,59.28L167.2,771.16l.19,17.41L163.67,804l-3.52,16-3.32,19.56-3.72,23.09L150,888l-3.33,18.39-2.54,14.09-4.3,25.43-.4,19.18-3.36,34"/><path class="cls-14" d="M329.27,757.09c8.2-4.6,16.86-9.87,25.83-15.92,9.63-6.49,18.31-13,26.08-19.3"/><line class="cls-14" x1="385.36" y1="729.96" x2="357.44" y2="746.39"/><path class="cls-14" d="M557.34,549.7a38.65,38.65,0,0,1,13.23-1.34,39.07,39.07,0,0,1,12.27,2.93"/><path class="cls-14" d="M586.75,498.76a54.17,54.17,0,0,1,2-8c.69-2.06,1.73-4.67,2.28-6.13a20.12,20.12,0,0,0,1.88-5c.07-.39.12-.72.14-.94"/><path class="cls-14" d="M586.67,498.11a43.21,43.21,0,0,0,9,12.72,42.13,42.13,0,0,0,5.81,4.74"/><path class="cls-14" d="M551.65,572.44a29,29,0,0,1,7.08,1c6.4,1.74,10.61,5.32,13.9,8.18a49.5,49.5,0,0,1,7,7.49"/><line class="cls-14" x1="141.71" y1="961.09" x2="158.92" y2="961.09"/><path class="cls-14" d="M169.1,828.83,180.57,816l9.66-7,23.17-15.35"/><line class="cls-14" x1="183.44" y1="823.87" x2="205.9" y2="798.62"/><path class="cls-14" d="M207.4,667.64a42.63,42.63,0,0,0,15.37,13.11,39.75,39.75,0,0,0,12.12,3.74"/><path class="cls-14" d="M498.67,699.8a51.89,51.89,0,0,0,13.11-23.73"/><line class="cls-14" x1="503.27" y1="704.96" x2="507.18" y2="687.93"/><path class="cls-14" d="M426.77,641a54.16,54.16,0,0,1-3.13,10,94.81,94.81,0,0,1-7.24,13.24h0"/><path class="cls-14" d="M419.14,615a47.43,47.43,0,0,1-.59,16.43c-1.86,8.57-6.58,18.2-6.58,18.2h0"/><path class="cls-14" d="M207.66,612.43a118.81,118.81,0,0,1,24.83,43.05"/><path class="cls-14" d="M234.51,662.78A34.47,34.47,0,0,1,239.4,669a34.06,34.06,0,0,1,3.26,7"/><path class="cls-14" d="M294.84,645.7,292.49,640l-8.38-14.8q-5.21-12.82-10.4-25.64V570.33l14.72-24.55,2.44-.94.57,19.73,3.4,4.95,13.3,23.74,7.83,7.57a72.76,72.76,0,0,0-21.13,44.87Z"/><polygon class="cls-14" points="371.4 627.7 360.31 612.43 350.14 600.3 336.31 600.3 336.31 568.48 322.49 541.61 333.44 541.61 353.01 565.87 367.36 604.48 371.4 627.7"/><path class="cls-14" d="M354.05,676.07l-8.64-25.54-8.7-25.7-1.7-2.09-3.13-2.87a130.62,130.62,0,0,0-14-17.41,128.55,128.55,0,0,0-9.75-9.2L292,564q-1.19-20.6-2.35-41.18a60.59,60.59,0,0,0,32.87,2.34v16.44l13.82,26.87v26.09q.27,7,.53,14.08c.09,2.49-.14,5.69.26,10.18,0,0,.25,2.88.78,6.06,1.63,9.91,7.36,25.28,7.87,26.66Q349.91,663.81,354.05,676.07Z"/><path class="cls-15" d="M225.44,385.22c-4.05,2.55-17.67,11.83-23,29.76-8.13,27.21,10.21,49.5,11.69,51.24,4.56,9.23,8.5,16.58,11.21,21.52,6.34,11.53,8.24,14,9.66,20s1.15,11,.57,20.93-.88,14.79-3,19.89c-1.54,3.6-5.23,10.5-14.29,16.57Q199,578.91,179.79,592.74A86.41,86.41,0,0,0,160.88,615c-10.46,17.77-11.53,34.43-12,44.29-.57,10.64-1.41,31.65,10.74,53.15A84.52,84.52,0,0,0,172.75,730"/><path class="cls-15" d="M227.79,377.65s17.61-59.08,69.26-17.22l44.22,39.14,3.62,1.56"/><path class="cls-15" d="M228.87,448.09a46.28,46.28,0,0,1-2.25-6.26,49,49,0,0,1-1.34-6.52,85.1,85.1,0,0,1-.79-19.07c.37-3.89.63-7.05.79-9.05l4.08-9a18.38,18.38,0,0,1,6.49-7.27c3-1.85,7.64-3.42,7.59-3.54h0"/><path class="cls-15" d="M238.49,380.65s32.35-39,57,19.7"/><path class="cls-15" d="M221.73,467.46a215.33,215.33,0,0,1,31.47,44.75c11.3,21.48,11.27,30.53,11,34.62C263,564,251.48,576,246.31,580.77"/><path class="cls-15" d="M343.23,462.17a121.47,121.47,0,0,0,9.39,21.26c5.44,9.67,14.85,23.22,22.69,33.53,2.82,3.7,6,7.75,8,14.08,1,3.33,1.12,5.42,2.61,12,1.08,4.77,2.14,8.61,2.87,11.09"/><path class="cls-15" d="M371.4,557a97.16,97.16,0,0,1-3.65-15.65c-.72-4.9-1-9.72-3.91-15.52a34.27,34.27,0,0,0-2.48-4.18"/><path class="cls-13" d="M1570.1,838.74l2.34-42.13s14.09,3.65,17.74-19.7V750.3s8.22-1.3,7.57-5.21c0,0,41.35-143.48,38-159.92,0,0-72.79-25-87.14-67.3,0,0-2.86-8.61-6.26-31l23.22-24s43.57-20.09,17.74-39.66c0,0-12,.53-2.61-11.47s10.18-34.7,10.18-34.7-10.7-45.39-59.74-68.09a61.18,61.18,0,0,0-18.93-1.85c-10.4.64-18.54,3.91-24.77,6.42-3.61,1.45-6.54,2.86-8.61,3.91a141.84,141.84,0,0,1-29.61,2.09c-4.3-.17-9.72-.62-12.74,2.81-2.64,3-2.15,7.57-1.82,10.55.35,3.25,1.4,7.6,6.09,15.07,3.21,5.13,7.5,12,15.88,18.49a61.64,61.64,0,0,0,19.46,10.21q-3.91,44.83-7.82,89.67s5.87,26.42,21.13,35.42c4.3,15.06-14.09,27.58-14.09,27.58s-59.09,13.89-62.41,8.22C1381.94,551,1295.27,702,1295.27,702s-6.39,11.48,16,16.05S1410.18,738,1410.18,738l2.61,92A66.31,66.31,0,0,0,1433,847.09c4.4,2.38,12.91,6.3,34,8.14a214.49,214.49,0,0,0,46.72-1A221.55,221.55,0,0,0,1570.1,838.74Z"/><path class="cls-13" d="M1497.18,819.78S1451,851,1429,845"/><line class="cls-13" x1="1409.92" y1="678.96" x2="1409.92" y2="584.65"/><path class="cls-13" d="M1395.44,584.65s10.37,28,14.48,30.33"/><path class="cls-13" d="M1388,615s12.72,10,21.91,13.89"/><path class="cls-13" d="M1326.77,675.63s19.57-20.74,41.48-8.41"/><path class="cls-13" d="M1621.1,589.09s-48,25-55.31,46.95"/><path class="cls-13" d="M1604.66,589.09s-11.48-4.44-28.69,19.56"/><path class="cls-13" d="M1580.14,593s-8.35,39.39-14.35,47"/><path class="cls-13" d="M1347.51,671.54a169.34,169.34,0,0,1,49.55,2.69,176.55,176.55,0,0,1,52,19.1c9,5.08,15.4,9.86,28.4,15.06a144.17,144.17,0,0,0,25.47,7.53"/><path class="cls-13" d="M1539.34,763.93a190,190,0,0,0-31.88-12.08c-16.83-4.68-27.24-5-60.23-9-8.3-1-21.13-2.6-37-4.84"/><path class="cls-13" d="M1486,744.83a104.86,104.86,0,0,1,3.82-32.73"/><path class="cls-13" d="M1533.18,585.53q1.13,81.15,2.26,162.3s1,23.08,27.39,45.26,28-31.05,28-31.05l.13-35.21-31.3-118.18a151.48,151.48,0,0,1-5.77-24.78c-.09-.67-.19-1.34-.27-2"/><path class="cls-13" d="M1534.36,721.53l-26.74-.31S1506,744.5,1502.05,750"/><path class="cls-13" d="M1486.09,518.17s-32.15,33.42-31.95,57.29c8.37,11.51,24.37.32,27.74-2.25l.63-.49Z"/><path class="cls-13" d="M1482.8,573.89l6.85,14.87v23.38l-3.56,4.6.14,26.41-3.43,4.21v27.49s-3.52,7.14-3.32,7.63,10.66.59,10.56,0,0-11.65,0-11.65l3.52-.48V655.09"/><path class="cls-13" d="M1527.71,586.35l-10.37-8.94S1502,596.07,1495.81,593s-13.5-16.76-13.5-16.76l6.53-73.24,7.56,2.22,7.44.78,3.78-4.57,6.26-2.86,17.22-.53V486.17h-21.92c-4.6-.8-7-4.66-6.18-7.2.52-1.73,2.54-3,4.88-3.36l27.26-.09h0l7.17,11.31.66,10.56a26.77,26.77,0,0,0,1.72,11.11l7.8,68.33,7.17,30.9-25.6.69,25,.23"/><path class="cls-13" d="M1501.88,507.17l7,29.94s6.65,4.3,8.42-4.31,0-19,0-19l.78,31.69s3.72,20.55,14.67,30.91c14.48,2.55,19.36-2.54,19.36-2.54"/><path class="cls-13" d="M1558.81,577.15s2.94,1.49,3.33,0,1-36.1,1-36.1"/><path class="cls-13" d="M1517.34,577.41s8.38-8.12,8.27-10.68"/><path class="cls-11" d="M1552.94,372.76a153.83,153.83,0,0,0-22.63.59c-9.61,1-11.87,2.1-20.87,3.26-14.06,1.81-23.14,3-33.39,0-12.8-3.73-20.69-12-24.94-16.57-8.8-9.44-20.69-27.77-15-35.71,2.14-3,8.22-3.34,20.24-4.59A167.63,167.63,0,0,1,1480,319a61.06,61.06,0,0,1,35.6-11.09,51.8,51.8,0,0,1,17.79,2.12s15.29,4.48,33.78,25.28a101,101,0,0,1,8.7,11.08,159.41,159.41,0,0,1,12.09,22,73.16,73.16,0,0,1,.56,15.69,71.38,71.38,0,0,1-3.13,16.44c-2.24,7-3.74,11.61-8,15.91-2.16,2.21-3.36,2.6-5,5-2.79,4.12-3.12,8.82-2.93,12.26a10.86,10.86,0,0,1-4.63-4.76c-1.76-3.86.43-6.46-.33-12.46a26.56,26.56,0,0,0-2.93-8.74,36.91,36.91,0,0,0-7.11-10Q1553.73,385.22,1552.94,372.76Z"/><path class="cls-15" d="M1475.53,368.39s51.26,3.78,62-3.39S1549,349.22,1549,349.22s-.79-15.65-10.31-23.61a16.88,16.88,0,0,1,9.69.88c2.86,1.21,5.56,4.56,11,11.25,3.06,3.79,4.22,5.59,5.19,7.92a27,27,0,0,1,1.76,6.85c.39,3.15.93,7.57-1,11.75-3,6.43-10.2,8.42-11.67,8.79l-.06,8"/></g><g id="Capa_9" data-name="Capa 9"><path class="cls-16" d="M1554.51,397.67c-6.08,2.63-1.24,14.41-7.5,49-2.66,14.7-4.53,18.39-5.78,24.62a37.1,37.1,0,0,0-1,7.21,27,27,0,0,0,1.43,8.87c1.9,5.79,3.18,18.93,5.66,44.25,2.66,27.16-1.17,38.45.21,63.23.94,16.87,2.54,13.83,17.81,82.56,12.56,56.53,14.08,70.29,14.9,81.27,1,13.17-.54,34.18,2.82,34.65,1.52.22,3.59-4.61,4.61-7a37.06,37.06,0,0,0,2.64-12.06,116.35,116.35,0,0,0,.2-18.39c-.11-1.11-.37-3.37,1-5.09s2.68-1,4.5-2.35c2.24-1.61,2.14-4,4.26-12.08.48-1.83,1-3.64,1.54-5.46.94-3.44,2.17-7.77,4-14.54,3-11.37,5.07-18.35,9.59-35,4.27-15.75,6.38-23.63,8.8-33.26,5.14-20.4,6.74-28.68,7.64-33.72,2.15-12.06,3.28-22.15,3.91-29.15-29.31-9.2-48.81-23.1-59.86-32.4-2.59-2.18-19.55-17.21-27.28-34.9-1.65-3.79-3-9.93-5.71-22.2a15.29,15.29,0,0,1,0-8.45c1.41-4.38,4.88-6.69,7.41-8.6,8.68-6.55,5.5-8.83,14.82-15.47,8.28-5.89,16.36-8.18,23.43-18a17.71,17.71,0,0,0,2.24-3.55C1597.31,425.57,1565.65,392.86,1554.51,397.67Z"/><path class="cls-16" d="M1411.36,739.87c-3,2.7-2.43,10.06,1,14.61,2.87,3.77,7.07,4.8,15.13,6.78a81.16,81.16,0,0,0,13,2.09,308.06,308.06,0,0,1,41.68,3.45c34.12,5.18,54.62,8.29,62.67,23.68s-.91,35.62-1.56,37c-6.48,14.15-18.24,20.35-16.44,23.22.54.86,2.2,1.25,25.83-6.07,13.13-4.06,15.58-5.09,17.46-8,2.56-3.92.89-7.21,1.06-21.17.12-9.72,2.85-13.51.08-17.48-1.72-2.46-3-1.66-8.43-5.61a54,54,0,0,1-10.56-10.17c-2.91-3.59-2.61-4.13-7.63-11.15-1.6-2.23-3.93-5.49-5.39-7.18-5.71-6.6-14.53-6.71-24.61-9.89-9.68-3-13.68-3.43-29.1-6.65,0,0-21.88-4.56-69.36-8.71C1415.33,738.6,1413,738.43,1411.36,739.87Z"/><path class="cls-16" d="M1484.07,577.9c-.15-.55-.73-2.62-2.44-3.32-3-1.25-4.91,3.65-11.43,4.93a29.66,29.66,0,0,1-10.48.35c-1.14-.23-2-.5-2.84,0-2.24,1.36-2.38,7.53.49,10,1.25,1.07,2.38.82,9.71.58,8-.26,8.21,0,9.56-.58C1481.33,587.87,1485.31,582.3,1484.07,577.9Z"/><path class="cls-16" d="M1364.79,669c1.24,2.51,5.86,1.12,15.52,2,17.52,1.51,23.71,7.9,28.31,4.43,4.09-3.08,2.45-10.59,1.3-20.6-1.8-15.73.13-31.67,0-47.5-.22-32.94,1.45-51-.16-51.11-1.06-.11-2.8,7.61-3.62,12.33-3.05,17.51.61,28.11-3.29,29.8-2.51,1.08-8.29-1.44-11.25-4.89-.92-1.08-2.15-2.92-4.11-3.06a4.24,4.24,0,0,0-3.13,1.2c-3.34,3.71,13.87,16.58,13.14,30.88-.31,6-6.77,13.43-19.69,28.3C1368.76,661.22,1363.29,666,1364.79,669Z"/><path class="cls-16" d="M321.71,774.43c-1-2.54,15.93-11.32,34.82-21.13C380,741.12,400.66,730.4,402.31,733c1.76,2.72-17.5,21.27-42.65,32.47C342,773.29,322.71,777,321.71,774.43Z"/><path class="cls-16" d="M412.71,657c1-12.7,9.79-25.07,14.39-24.09,2.39.51,3.8,4.68,3.91,7.57.14,3.79-2,5-3.65,10.17-1.31,4-2.61,11.29,0,13.05s7.73-4.13,10.69-2.35-.31,8.48,1.57,14.87c2.2,7.49,10.24,10.43,19.56,14.87,31.53,15,38.83,28.55,48.26,24,6-2.9,7-10.29,15.92-12.26,1.86-.42,6-1.33,8.29.83,3.82,3.57-.1,13-4.38,23.17-4.62,11-7.83,13.18-10.17,14.08a14.06,14.06,0,0,1-8.35.26c-14.11-3.07-24.14-12-38.49-21.25-3.4-2.2-7.9-4.75-16.88-9.86-21.95-12.47-29.41-12.15-34.17-20.8-2.31-4.19-3.17-8.8-4.9-18C413,664.46,412.4,661.06,412.71,657Z"/><path class="cls-16" d="M151.13,878.72c4.48,1.59,18.69-27.08,24.62-40.5,6.38-14.46,11.95-31.13,9.85-32.15s-9.34,13.6-11.81,12.58c-4.31-1.78,9.79-49.93,20.35-81.39,3.09-9.21,5.71-20.36,11-42.65,3-12.68,4.2-19,2.3-27-2.65-11.12-9.55-18.14-7-21.16,2.81-3.32,12.81,3.21,15.65,0,3.56-4-11-15.55-8.89-26.9,3-16.18,39.44-28.87,55.28-17.57,1.76,1.27,1.86,1.82,11.92,15.12,14.08,18.63,15.68,19.91,16.3,19.59,2.13-1.09-12.15-18.9-11.61-43.07.33-14.45,6.1-37.31,22.7-52.82,7.4-6.92,15.49-11,14.35-14.69-1.3-4.22-12.61-1.26-23.74-6.44s-15.95-15.63-21.92-28.57c-10.07-21.84-8.79-39.35-6.65-68.48.35-4.75.82-8.89,3.92-12.13,10.64-11.12,37.53,4,39.91-.39,3-5.55-33.14-42.36-54.78-32.09-9.32,4.42-12.89,16.12-18,32.87a135.86,135.86,0,0,0-6,37.18c-.66,45.08,12,58.31,10.66,82.56-2.08,36.27-32.29,37.21-54.78,81.39-23.22,45.61-.44,63.09-12.52,155.74C163.74,832.85,145.65,876.78,151.13,878.72Z"/></g></svg>