<svg width="26" height="26" viewBox="0 0 26 26" fill="none" xmlns="http://www.w3.org/2000/svg">
<rect x="0.0804443" y="0.780029" width="25.1416" height="24.4979" rx="8" fill="#154880" fill-opacity="0.1"/>
<g clip-path="url(#clip0_292_5705)">
<path d="M17.3653 11.8654V8.43566C17.3653 7.59355 16.6582 6.90454 15.7939 6.90454H6.36579C5.50154 6.90454 4.79443 7.59355 4.79443 8.43566V17.6224C4.79443 18.4645 5.50154 19.1535 6.36579 19.1535H15.7939C16.6582 19.1535 17.3653 18.4645 17.3653 17.6224V14.1927L19.8401 16.5889C20.0837 16.8339 20.508 16.6578 20.508 16.3209V9.73711C20.508 9.40027 20.0837 9.22419 19.8401 9.46917L17.3653 11.8654ZM11.0798 9.96678C11.9441 9.96678 12.6512 10.6558 12.6512 11.4979C12.6512 12.34 11.9441 13.029 11.0798 13.029C10.2156 13.029 9.50849 12.34 9.50849 11.4979C9.50849 10.6558 10.2156 9.96678 11.0798 9.96678ZM14.2226 16.0913H7.93714V15.6549C7.93714 15.0348 8.31426 14.4836 8.89567 14.2386C9.56349 13.9553 10.302 13.7946 11.0798 13.7946C11.8577 13.7946 12.5962 13.9553 13.264 14.2386C13.8454 14.4836 14.2226 15.0348 14.2226 15.6549V16.0913Z" fill="#154880"/>
</g>
<defs>
<clipPath id="clip0_292_5705">
<rect width="18.8562" height="18.3734" fill="white" transform="translate(3.22302 3.84229)"/>
</clipPath>
</defs>
</svg>
