<svg width="25" height="24" viewBox="0 0 25 24" fill="none" xmlns="http://www.w3.org/2000/svg">
<path d="M7.91157 2.00024H16.3116C19.5116 2.00024 22.1116 4.60024 22.1116 7.80024V16.2002C22.1116 17.7385 21.5005 19.2138 20.4128 20.3015C19.3251 21.3892 17.8498 22.0002 16.3116 22.0002H7.91157C4.71157 22.0002 2.11157 19.4002 2.11157 16.2002V7.80024C2.11157 6.26199 2.72264 4.78674 3.81035 3.69902C4.89806 2.61131 6.37332 2.00024 7.91157 2.00024V2.00024ZM7.71157 4.00024C6.75679 4.00024 5.84112 4.37953 5.16599 5.05466C4.49086 5.72979 4.11157 6.64546 4.11157 7.60024V16.4002C4.11157 18.3902 5.72157 20.0002 7.71157 20.0002H16.5116C17.4663 20.0002 18.382 19.621 19.0572 18.9458C19.7323 18.2707 20.1116 17.355 20.1116 16.4002V7.60024C20.1116 5.61024 18.5016 4.00024 16.5116 4.00024H7.71157ZM17.3616 5.50024C17.6931 5.50024 18.011 5.63194 18.2455 5.86636C18.4799 6.10078 18.6116 6.41872 18.6116 6.75024C18.6116 7.08176 18.4799 7.39971 18.2455 7.63413C18.011 7.86855 17.6931 8.00024 17.3616 8.00024C17.03 8.00024 16.7121 7.86855 16.4777 7.63413C16.2433 7.39971 16.1116 7.08176 16.1116 6.75024C16.1116 6.41872 16.2433 6.10078 16.4777 5.86636C16.7121 5.63194 17.03 5.50024 17.3616 5.50024ZM12.1116 7.00024C13.4377 7.00024 14.7094 7.52703 15.6471 8.46471C16.5848 9.40239 17.1116 10.6742 17.1116 12.0002C17.1116 13.3263 16.5848 14.5981 15.6471 15.5358C14.7094 16.4735 13.4377 17.0002 12.1116 17.0002C10.7855 17.0002 9.51372 16.4735 8.57604 15.5358C7.63836 14.5981 7.11157 13.3263 7.11157 12.0002C7.11157 10.6742 7.63836 9.40239 8.57604 8.46471C9.51372 7.52703 10.7855 7.00024 12.1116 7.00024V7.00024ZM12.1116 9.00024C11.3159 9.00024 10.5529 9.31631 9.99025 9.87892C9.42764 10.4415 9.11157 11.2046 9.11157 12.0002C9.11157 12.7959 9.42764 13.559 9.99025 14.1216C10.5529 14.6842 11.3159 15.0002 12.1116 15.0002C12.9072 15.0002 13.6703 14.6842 14.2329 14.1216C14.7955 13.559 15.1116 12.7959 15.1116 12.0002C15.1116 11.2046 14.7955 10.4415 14.2329 9.87892C13.6703 9.31631 12.9072 9.00024 12.1116 9.00024Z" fill="#5C5C5C"/>
</svg>
