<svg width="24" height="24" viewBox="0 0 24 24" fill="none" xmlns="http://www.w3.org/2000/svg">
<path d="M19 2.99976C19.5304 2.99976 20.0391 3.21047 20.4142 3.58554C20.7893 3.96061 21 4.46932 21 4.99976V18.9998C21 19.5302 20.7893 20.0389 20.4142 20.414C20.0391 20.789 19.5304 20.9998 19 20.9998H5C4.46957 20.9998 3.96086 20.789 3.58579 20.414C3.21071 20.0389 3 19.5302 3 18.9998V4.99976C3 4.46932 3.21071 3.96061 3.58579 3.58554C3.96086 3.21047 4.46957 2.99976 5 2.99976H19ZM18.5 18.4998V13.1998C18.5 12.3351 18.1565 11.506 17.5452 10.8946C16.9338 10.2832 16.1046 9.93976 15.24 9.93976C14.39 9.93976 13.4 10.4598 12.92 11.2398V10.1298H10.13V18.4998H12.92V13.5698C12.92 12.7998 13.54 12.1698 14.31 12.1698C14.6813 12.1698 15.0374 12.3173 15.2999 12.5798C15.5625 12.8424 15.71 13.1985 15.71 13.5698V18.4998H18.5ZM6.88 8.55976C7.32556 8.55976 7.75288 8.38276 8.06794 8.0677C8.383 7.75263 8.56 7.32532 8.56 6.87976C8.56 5.94976 7.81 5.18976 6.88 5.18976C6.43178 5.18976 6.00193 5.36781 5.68499 5.68475C5.36805 6.00168 5.19 6.43154 5.19 6.87976C5.19 7.80976 5.95 8.55976 6.88 8.55976ZM8.27 18.4998V10.1298H5.5V18.4998H8.27Z" fill="#5C5C5C"/>
</svg>
