<svg version="1.1" id="Capa_1" xmlns="http://www.w3.org/2000/svg" xmlns:xlink="http://www.w3.org/1999/xlink" x="0px" y="0px"
	 viewBox="0 0 38.6 40" style="enable-background:new 0 0 38.6 40;" xml:space="preserve">
<style type="text/css">
	.st0{fill:#154880;}
	.st1{fill:#014E3C;}
</style>
<path class="st0" d="M34.9,9.1L22,1.7c-0.6-0.3-1.3-0.5-2-0.5s-1.4,0.2-2,0.5l0,0L5.1,9.1c-1.2,0.7-2,2-2,3.4v14.9
	c0,1.5,0.8,2.7,2,3.4l0,0L18,38.3c0.6,0.3,1.3,0.5,2,0.5c0.7,0,1.4-0.2,2-0.5l0,0l12.9-7.5l-1.3-2.3l0,0L20.7,36
	c-0.2,0.1-0.4,0.2-0.7,0.2c-0.2,0-0.5-0.1-0.7-0.2l0,0L6.4,28.6c-0.4-0.2-0.7-0.7-0.7-1.1V12.5c0-0.5,0.3-0.9,0.7-1.1l0,0L19.3,4
	c0.2-0.1,0.4-0.2,0.7-0.2s0.5,0.1,0.7,0.2l0,0l12.9,7.5C34.1,10.5,34.9,9.1,34.9,9.1z"/>
<path class="st1" d="M27.6,24.3h-0.9c-0.2,0-0.5,0.1-0.6,0.2l0,0l-5.7,3.1l-6.6-3.8v-7.6l6.6-3.8l5.7,3.1c0.2,0.1,0.4,0.2,0.6,0.2
	h0.9c0.4,0,0.7-0.3,0.7-0.7v-0.9c0-0.2-0.1-0.5-0.3-0.6l0,0l-6.3-3.5c-0.4-0.2-0.8-0.3-1.3-0.3c-0.5,0-0.9,0.1-1.3,0.4l0,0l-6.6,3.8
	c-0.8,0.5-1.3,1.3-1.3,2.3v7.6c0,1,0.5,1.8,1.3,2.3l0,0l6.6,3.8c0.4,0.2,0.8,0.4,1.3,0.4c0.5,0,0.9-0.1,1.3-0.3l0,0l6.4-3.5
	c0.2-0.1,0.3-0.3,0.3-0.6V25C28.3,24.6,28,24.3,27.6,24.3L27.6,24.3z"/>
</svg>
