<svg width="18" height="18" viewBox="0 0 18 18" fill="none" xmlns="http://www.w3.org/2000/svg">
<path d="M14.4565 11.0027C13.8821 10.4283 13.1601 10.4283 12.5857 11.0027C12.1427 11.4458 11.716 11.8725 11.2729 12.3156C11.1581 12.4469 11.0596 12.4633 10.9119 12.3812C10.633 12.2335 10.3376 12.1022 10.0586 11.9381C8.79505 11.134 7.72841 10.1165 6.77663 8.95126C6.31716 8.37687 5.8905 7.75324 5.59512 7.06397C5.54589 6.93268 5.5623 6.83421 5.67717 6.71933C6.12024 6.29264 6.5469 5.86594 6.97355 5.42284C7.58072 4.81562 7.58072 4.10994 6.97355 3.50272C6.61253 3.15808 6.28434 2.81345 5.93973 2.46881C5.57871 2.12417 5.2341 1.76312 4.87309 1.41849C4.29874 0.860504 3.5767 0.860504 3.00236 1.41849C2.55929 1.84518 2.13263 2.3047 1.68957 2.73139C1.26291 3.12526 1.04958 3.60119 1.01676 4.15917C0.93471 5.0782 1.16445 5.948 1.47624 6.78497C2.13263 8.52457 3.11723 10.0836 4.31515 11.5114C5.93973 13.4315 7.85969 14.9578 10.1243 16.0573C11.1417 16.5497 12.1919 16.9271 13.3406 16.9928C14.1283 17.042 14.8175 16.8451 15.359 16.2215C15.7364 15.7948 16.1631 15.4173 16.5569 15.0234C17.1477 14.4326 17.1477 13.7105 16.5569 13.1197C15.8677 12.414 15.1621 11.7084 14.4565 11.0027Z" fill="#5C5C5C"/>
</svg>
