<svg width="26" height="25" viewBox="0 0 26 25" fill="none" xmlns="http://www.w3.org/2000/svg">
<rect x="0.0803223" y="0.170166" width="25.1416" height="24.4979" rx="8" fill="#154880" fill-opacity="0.1"/>
<g clip-path="url(#clip0_292_5721)">
<path d="M20.0443 11.9673L13.1068 5.20745C12.8161 4.9242 12.4154 4.76343 11.999 4.76343H6.36566C5.50142 4.76343 4.79431 5.45243 4.79431 6.29455V11.7836C4.79431 12.1894 4.9593 12.5798 5.25786 12.8631L12.1954 19.623C12.8082 20.2201 13.806 20.2201 14.4188 19.623L20.0521 14.1339C20.665 13.5367 20.665 12.5721 20.0443 11.9673ZM8.32986 9.35679C7.67774 9.35679 7.15134 8.84386 7.15134 8.20845C7.15134 7.57303 7.67774 7.06011 8.32986 7.06011C8.98197 7.06011 9.50837 7.57303 9.50837 8.20845C9.50837 8.84386 8.98197 9.35679 8.32986 9.35679Z" fill="#154880"/>
</g>
<defs>
<clipPath id="clip0_292_5721">
<rect width="18.8562" height="18.3734" fill="white" transform="translate(3.2229 3.23242)"/>
</clipPath>
</defs>
</svg>
