<svg width="25" height="24" viewBox="0 0 25 24" fill="none" xmlns="http://www.w3.org/2000/svg">
<path d="M22.5709 6.00049C21.8009 6.35049 20.9709 6.58049 20.1109 6.69049C20.9909 6.16049 21.6709 5.32049 21.9909 4.31049C21.1609 4.81049 20.2409 5.16049 19.2709 5.36049C18.4809 4.50049 17.3709 4.00049 16.1109 4.00049C13.7609 4.00049 11.8409 5.92049 11.8409 8.29049C11.8409 8.63049 11.8809 8.96049 11.9509 9.27049C8.39088 9.09049 5.22088 7.38049 3.11088 4.79049C2.74088 5.42049 2.53088 6.16049 2.53088 6.94049C2.53088 8.43049 3.28088 9.75049 4.44088 10.5005C3.73088 10.5005 3.07088 10.3005 2.49088 10.0005C2.49088 10.0005 2.49088 10.0005 2.49088 10.0305C2.49088 12.1105 3.97088 13.8505 5.93088 14.2405C5.57088 14.3405 5.19088 14.3905 4.80088 14.3905C4.53088 14.3905 4.26088 14.3605 4.00088 14.3105C4.54088 16.0005 6.11088 17.2605 8.00088 17.2905C6.54088 18.4505 4.69088 19.1305 2.67088 19.1305C2.33088 19.1305 1.99088 19.1105 1.65088 19.0705C3.55088 20.2905 5.81088 21.0005 8.23088 21.0005C16.1109 21.0005 20.4409 14.4605 20.4409 8.79049C20.4409 8.60049 20.4409 8.42049 20.4309 8.23049C21.2709 7.63049 21.9909 6.87049 22.5709 6.00049Z" fill="#4EBAE9"/>
<path d="M22.5709 6.00049C21.8009 6.35049 20.9709 6.58049 20.1109 6.69049C20.9909 6.16049 21.6709 5.32049 21.9909 4.31049C21.1609 4.81049 20.2409 5.16049 19.2709 5.36049C18.4809 4.50049 17.3709 4.00049 16.1109 4.00049C13.7609 4.00049 11.8409 5.92049 11.8409 8.29049C11.8409 8.63049 11.8809 8.96049 11.9509 9.27049C8.39088 9.09049 5.22088 7.38049 3.11088 4.79049C2.74088 5.42049 2.53088 6.16049 2.53088 6.94049C2.53088 8.43049 3.28088 9.75049 4.44088 10.5005C3.73088 10.5005 3.07088 10.3005 2.49088 10.0005C2.49088 10.0005 2.49088 10.0005 2.49088 10.0305C2.49088 12.1105 3.97088 13.8505 5.93088 14.2405C5.57088 14.3405 5.19088 14.3905 4.80088 14.3905C4.53088 14.3905 4.26088 14.3605 4.00088 14.3105C4.54088 16.0005 6.11088 17.2605 8.00088 17.2905C6.54088 18.4505 4.69088 19.1305 2.67088 19.1305C2.33088 19.1305 1.99088 19.1105 1.65088 19.0705C3.55088 20.2905 5.81088 21.0005 8.23088 21.0005C16.1109 21.0005 20.4409 14.4605 20.4409 8.79049C20.4409 8.60049 20.4409 8.42049 20.4309 8.23049C21.2709 7.63049 21.9909 6.87049 22.5709 6.00049Z" fill="#5C5C5C"/>
</svg>
