<svg width="26" height="26" viewBox="0 0 26 26" fill="none" xmlns="http://www.w3.org/2000/svg">
<rect x="0.0803223" y="0.937744" width="25.1416" height="24.4979" rx="8" fill="#154880" fill-opacity="0.1"/>
<g clip-path="url(#clip0_292_5730)">
<path d="M12.651 5.53101C9.35117 5.53101 6.3656 7.99611 6.3656 11.8086C6.3656 14.2431 8.29051 17.1063 12.1325 20.4058C12.431 20.6585 12.8789 20.6585 13.1774 20.4058C17.0115 17.1063 18.9364 14.2431 18.9364 11.8086C18.9364 7.99611 15.9509 5.53101 12.651 5.53101ZM12.651 13.1866C11.7868 13.1866 11.0797 12.4976 11.0797 11.6555C11.0797 10.8134 11.7868 10.1244 12.651 10.1244C13.5153 10.1244 14.2224 10.8134 14.2224 11.6555C14.2224 12.4976 13.5153 13.1866 12.651 13.1866Z" fill="#154880"/>
</g>
<defs>
<clipPath id="clip0_292_5730">
<rect width="18.8562" height="18.3734" fill="white" transform="translate(3.2229 4)"/>
</clipPath>
</defs>
</svg>
