<svg width="386" height="377" viewBox="0 0 386 377" fill="none" xmlns="http://www.w3.org/2000/svg">
<g filter="url(#filter0_d_292_2288)">
<mask id="path-1-outside-1_292_2288" maskUnits="userSpaceOnUse" x="20" y="12" width="114" height="272" fill="black">
<rect fill="white" x="20" y="12" width="114" height="272"/>
<path d="M29 75.7404C28.4477 75.7404 28 75.2927 28 74.7404V21C28 20.4477 28.4477 20 29 20H124.041C124.594 20 125.041 20.4477 125.041 21V274.915C125.041 275.467 124.594 275.915 124.041 275.915H63.6826C63.1304 275.915 62.6826 275.467 62.6826 274.915V76.7404C62.6826 76.1881 62.2349 75.7404 61.6826 75.7404H29Z"/>
</mask>
<path d="M36 74.7404V21H20V74.7404H36ZM29 28H124.041V12H29V28ZM117.041 21V274.915H133.041V21H117.041ZM124.041 267.915H63.6826V283.915H124.041V267.915ZM70.6826 274.915V76.7404H54.6826V274.915H70.6826ZM61.6826 67.7404H29V83.7404H61.6826V67.7404ZM70.6826 76.7404C70.6826 71.7698 66.6532 67.7404 61.6826 67.7404V83.7404C57.8166 83.7404 54.6826 80.6064 54.6826 76.7404H70.6826ZM63.6826 267.915C67.5486 267.915 70.6826 271.049 70.6826 274.915H54.6826C54.6826 279.886 58.7121 283.915 63.6826 283.915V267.915ZM117.041 274.915C117.041 271.049 120.175 267.915 124.041 267.915V283.915C129.012 283.915 133.041 279.886 133.041 274.915H117.041ZM124.041 28C120.175 28 117.041 24.866 117.041 21H133.041C133.041 16.0295 129.012 12 124.041 12V28ZM36 21C36 24.866 32.866 28 29 28V12C24.0294 12 20 16.0295 20 21H36ZM20 74.7404C20 79.711 24.0295 83.7404 29 83.7404V67.7404C32.866 67.7404 36 70.8744 36 74.7404H20Z" fill="url(#paint0_linear_292_2288)" mask="url(#path-1-outside-1_292_2288)"/>
<path d="M332.342 184.903C326.652 187.936 322.291 193.153 319.156 198.896C316.02 204.639 313.998 210.949 311.999 217.204L310.237 249.483C316.844 237.901 322.164 224.285 323.599 210.954L319.195 210.55C322.151 210.097 324.63 207.885 326.207 205.274C327.783 202.663 328.594 199.658 329.387 196.693L324.04 197.5C328.275 194.552 331.247 190.043 332.342 184.903Z" fill="#E0E0E0"/>
<path d="M309.268 257.044C309.268 257.044 294.902 239.365 295.069 222.476H300.87C300.87 222.476 294.567 218.215 295.069 215.826C295.572 213.438 295.73 204.399 295.73 204.399L301.015 205.759C301.015 205.759 297.051 203.715 296.54 200.474C296.03 197.233 297.699 182.224 297.699 182.224C297.699 182.224 304.164 189.219 306.155 196.381C308.145 203.542 313.364 211.901 311.832 233.727C310.299 255.552 309.268 257.044 309.268 257.044Z" fill="#EBEBEB"/>
<path d="M316.553 258.716C316.553 258.716 332.112 248.05 335.57 234.438L330.906 233.133C330.906 233.133 336.878 231.125 336.988 229.094C337.098 227.063 338.882 219.756 338.882 219.756L334.328 219.661C334.328 219.661 337.961 218.909 339.049 216.416C340.137 213.922 342 201.484 342 201.484C342 201.484 335.31 205.65 332.187 210.949C329.065 216.248 323.088 221.828 319.679 239.71C316.271 257.592 316.553 258.716 316.553 258.716Z" fill="#EBEBEB"/>
<path d="M301.645 197.65C301.667 197.71 301.683 197.772 301.693 197.835L301.816 198.379C301.922 198.869 302.076 199.576 302.257 200.478C302.437 201.38 302.697 202.509 302.935 203.81C303.173 205.111 303.485 206.588 303.776 208.229C304.388 211.511 305.036 215.432 305.705 219.792C306.375 224.153 306.996 228.967 307.572 234.026C308.149 239.084 308.572 243.925 308.894 248.327C309.215 252.728 309.449 256.699 309.581 260.035C309.664 261.703 309.7 263.208 309.744 264.541C309.788 265.873 309.81 267.007 309.819 267.94C309.827 268.874 309.841 269.586 309.845 270.089V270.651C309.845 270.773 309.845 270.841 309.845 270.841C309.838 270.778 309.838 270.714 309.845 270.651C309.845 270.511 309.845 270.329 309.823 270.089C309.823 269.586 309.783 268.865 309.753 267.94C309.722 267.016 309.691 265.869 309.634 264.545C309.576 263.222 309.532 261.708 309.44 260.044C309.29 256.708 309.035 252.742 308.704 248.345C308.374 243.948 307.912 239.111 307.348 234.053C306.784 228.994 306.137 224.189 305.498 219.824C304.86 215.459 304.212 211.543 303.622 208.261C303.34 206.616 303.054 205.138 302.812 203.832C302.569 202.527 302.371 201.412 302.173 200.496C301.975 199.581 301.86 198.882 301.763 198.388C301.719 198.157 301.689 197.976 301.662 197.84C301.651 197.777 301.645 197.713 301.645 197.65Z" fill="#E0E0E0"/>
<path d="M307.274 267.872C307.274 267.872 294.132 252.533 290.049 243.259L293.132 241.899C290.895 242.28 288.609 241.292 286.878 239.791C285.147 238.291 283.875 236.333 282.641 234.379L286.698 233.677C282.97 232.581 279.795 230.051 277.832 226.61C282.619 227.421 286.953 230.127 290.525 233.509C293.414 236.229 295.863 239.429 298.214 242.674C299.364 244.258 300.365 245.95 301.205 247.729C303.398 252.425 307.305 262.238 307.274 267.872Z" fill="#EBEBEB"/>
<path d="M335.772 210.414C335.757 210.469 335.737 210.522 335.711 210.573C335.658 210.682 335.592 210.831 335.508 211.026C335.319 211.425 335.046 211.996 334.702 212.726C334.358 213.456 333.922 214.362 333.434 215.418C332.945 216.475 332.381 217.662 331.786 218.995C330.571 221.651 329.179 224.838 327.677 228.4C326.176 231.963 324.595 235.911 323.035 240.086C321.476 244.261 320.058 248.277 318.829 251.949C317.601 255.62 316.557 258.943 315.72 261.748C315.28 263.145 314.927 264.423 314.597 265.538C314.267 266.653 313.994 267.619 313.774 268.407C313.553 269.196 313.377 269.794 313.258 270.22L313.117 270.674C313.102 270.728 313.083 270.781 313.06 270.832C313.066 270.775 313.078 270.719 313.095 270.665C313.122 270.547 313.161 270.388 313.214 270.189C313.324 269.758 313.483 269.146 313.69 268.375C313.897 267.605 314.157 266.617 314.474 265.497C314.791 264.378 315.139 263.095 315.562 261.694C316.381 258.884 317.42 255.552 318.645 251.871C319.869 248.191 321.287 244.166 322.837 239.995C324.388 235.825 326.004 231.873 327.501 228.31C328.999 224.747 330.426 221.569 331.659 218.922C332.262 217.59 332.839 216.402 333.337 215.355C333.834 214.308 334.275 213.41 334.658 212.681L335.499 210.999C335.596 210.818 335.671 210.667 335.724 210.546C335.738 210.501 335.754 210.457 335.772 210.414Z" fill="#E0E0E0"/>
<path d="M308.388 274.449C308.362 274.356 308.343 274.26 308.331 274.164C308.3 273.955 308.256 273.683 308.207 273.352C308.159 273.022 308.093 272.564 308.005 272.065C307.917 271.566 307.833 270.991 307.701 270.365C307.467 269.11 307.128 267.623 306.701 265.991C306.274 264.359 305.71 262.591 305.045 260.765C304.38 258.938 303.64 257.238 302.927 255.715C302.213 254.192 301.5 252.855 300.87 251.753C300.566 251.196 300.262 250.711 299.989 250.276C299.716 249.841 299.505 249.469 299.311 249.17L298.87 248.476C298.815 248.398 298.769 248.312 298.734 248.222C298.8 248.292 298.859 248.368 298.91 248.449L299.372 249.12C299.575 249.41 299.813 249.773 300.082 250.203C300.35 250.634 300.663 251.11 300.962 251.667C301.614 252.764 302.332 254.101 303.072 255.62C303.812 257.138 304.539 258.852 305.217 260.683C305.895 262.514 306.424 264.309 306.86 265.937C307.296 267.564 307.599 269.069 307.815 270.334C307.939 270.964 308.009 271.539 308.084 272.042C308.159 272.546 308.216 272.981 308.251 273.339C308.286 273.697 308.313 273.946 308.331 274.159C308.361 274.253 308.381 274.351 308.388 274.449Z" fill="#E0E0E0"/>
<path d="M325.731 270.842H296.963V276.879H325.731V270.842Z" fill="#E0E0E0"/>
<path d="M299.707 276.875L302.816 297.182H320.199L323.102 276.875H299.707Z" fill="#E0E0E0"/>
<path d="M323.97 276.874C323.97 276.942 318.526 276.992 311.814 276.992C305.102 276.992 299.659 276.942 299.659 276.874C299.659 276.806 305.102 276.757 311.814 276.757C318.526 276.757 323.97 276.811 323.97 276.874Z" fill="#EBEBEB"/>
<path d="M278.836 160.707C278.449 162.223 277.798 163.654 276.916 164.931L278.805 166.745L286.865 174.233L286.676 174.323C286.676 174.323 293.652 169.31 295.581 167.674C297.171 166.314 301.425 163.54 301.773 160.838C301.831 160.358 301.742 159.871 301.518 159.446C301.293 159.021 300.945 158.679 300.522 158.468C300.232 158.316 299.908 158.249 299.583 158.276C299.259 158.302 298.949 158.42 298.686 158.617C298.686 158.617 300.562 156.351 299.078 154.864C297.593 153.377 296.435 154.542 296.435 154.542C296.435 154.542 298.272 151.664 296.567 150.068C296.214 149.79 295.788 149.627 295.344 149.603C294.899 149.579 294.459 149.694 294.079 149.932L294.77 149.171L298.333 145.223C298.758 144.765 298.995 144.156 298.995 143.523C298.995 142.89 298.758 142.281 298.333 141.823C298.115 141.595 297.854 141.415 297.567 141.293C297.28 141.171 296.972 141.109 296.661 141.112C296.35 141.114 296.043 141.181 295.757 141.308C295.472 141.435 295.214 141.619 294.999 141.85L284.976 152.647L285.486 146.755C285.614 145.227 283.61 144.121 282.721 144.683C282.721 144.683 281.351 145.232 280.959 147.62C280.699 149.425 278.836 160.707 278.836 160.707Z" fill="#F5F5F5"/>
<path d="M278.836 160.707C278.836 160.707 278.836 160.607 278.871 160.412C278.906 160.217 278.942 159.927 278.999 159.556C279.118 158.794 279.289 157.688 279.514 156.26L280.351 151.038C280.515 150.02 280.69 148.931 280.875 147.77C280.952 147.162 281.126 146.571 281.39 146.021C281.665 145.42 282.12 144.927 282.689 144.615C283.046 144.434 283.457 144.403 283.835 144.529C284.207 144.65 284.551 144.851 284.843 145.119C285.158 145.391 285.392 145.749 285.517 146.152C285.548 146.256 285.557 146.365 285.579 146.469C285.601 146.574 285.579 146.691 285.579 146.796L285.526 147.417C285.385 149.085 285.238 150.831 285.085 152.657L284.9 152.571L294.03 142.752C294.237 142.535 294.44 142.299 294.647 142.091C294.848 141.854 295.073 141.638 295.316 141.447C295.848 141.076 296.498 140.932 297.131 141.044C297.451 141.1 297.757 141.223 298.03 141.404C298.303 141.585 298.538 141.821 298.72 142.098C298.903 142.375 299.029 142.687 299.092 143.015C299.155 143.343 299.153 143.681 299.086 144.008C299.022 144.34 298.898 144.657 298.721 144.942C298.534 145.205 298.324 145.451 298.095 145.676L296.8 147.104L294.158 150L294.004 149.796C294.524 149.485 295.137 149.383 295.726 149.511C295.973 149.567 296.209 149.663 296.426 149.796C296.54 149.86 296.641 149.945 296.726 150.046C296.816 150.138 296.898 150.238 296.972 150.345C297.264 150.769 297.418 151.276 297.413 151.795C297.363 152.791 297.06 153.756 296.532 154.592L296.338 154.429C296.578 154.21 296.871 154.061 297.186 153.997C297.501 153.933 297.827 153.957 298.13 154.066C298.426 154.18 298.7 154.349 298.936 154.565C299.056 154.662 299.165 154.771 299.262 154.891L299.416 155.073L299.535 155.281C299.669 155.561 299.747 155.866 299.763 156.178C299.778 156.49 299.733 156.801 299.628 157.094C299.438 157.669 299.15 158.205 298.778 158.676L298.615 158.49C298.873 158.3 299.174 158.179 299.49 158.139C299.805 158.1 300.125 158.143 300.421 158.264C300.852 158.44 301.224 158.744 301.488 159.136C301.753 159.529 301.9 159.993 301.909 160.471C301.902 160.779 301.855 161.084 301.768 161.378C301.571 161.942 301.292 162.473 300.94 162.951C299.527 164.814 297.69 166.124 296.038 167.416C294.387 168.707 292.753 169.977 291.194 171.132L286.724 174.373L286.631 174.21L286.821 174.12L286.799 174.278L278.765 166.795H278.849L278.805 166.84L278.761 166.799L276.88 164.986L276.85 164.954L276.876 164.918C277.531 163.976 278.064 162.951 278.462 161.867C278.598 161.5 278.686 161.21 278.743 161.015C278.801 160.82 278.836 160.725 278.836 160.725C278.755 161.12 278.646 161.507 278.51 161.886C278.131 162.985 277.608 164.027 276.955 164.981V164.913C277.501 165.435 278.109 166.01 278.849 166.727H278.765L278.805 166.681L278.853 166.722L286.931 174.183L287.036 174.278L286.909 174.337L286.719 174.428L286.605 174.233L291.062 170.974C292.612 169.813 294.255 168.612 295.884 167.252C297.514 165.893 299.364 164.641 300.729 162.819C301.065 162.364 301.33 161.858 301.517 161.319C301.596 161.048 301.64 160.768 301.649 160.485C301.641 160.202 301.581 159.924 301.473 159.664C301.249 159.135 300.832 158.718 300.31 158.504C300.051 158.399 299.771 158.362 299.495 158.398C299.218 158.434 298.955 158.54 298.729 158.708L298.056 159.22L298.593 158.531C298.944 158.086 299.214 157.579 299.39 157.035C299.489 156.772 299.533 156.491 299.52 156.209C299.507 155.927 299.437 155.651 299.315 155.399C299.024 154.907 298.58 154.53 298.056 154.329C297.796 154.235 297.518 154.214 297.248 154.266C296.978 154.319 296.726 154.444 296.519 154.628L295.911 155.195L296.329 154.474C296.831 153.681 297.12 152.764 297.166 151.818C297.192 151.353 297.057 150.894 296.786 150.521C296.514 150.149 296.123 149.887 295.682 149.783C295.154 149.67 294.604 149.764 294.14 150.046L293.44 150.445L293.986 149.846L296.629 146.95C297.066 146.472 297.498 145.996 297.923 145.522C298.136 145.301 298.327 145.059 298.496 144.801C298.656 144.544 298.768 144.258 298.826 143.958C298.886 143.662 298.887 143.357 298.831 143.06C298.774 142.764 298.66 142.482 298.496 142.231C298.331 141.986 298.12 141.777 297.876 141.616C297.631 141.455 297.359 141.345 297.073 141.293C296.504 141.189 295.918 141.318 295.439 141.651C295.209 141.833 294.997 142.038 294.805 142.263L294.189 142.925L285.05 152.72L284.843 152.929L284.874 152.62C285.033 150.807 285.187 149.049 285.336 147.385C285.409 146.99 285.409 146.584 285.336 146.188C285.222 145.821 285.01 145.495 284.724 145.245C284.45 144.995 284.125 144.809 283.773 144.702C283.443 144.588 283.084 144.609 282.769 144.76C282.24 145.055 281.815 145.516 281.558 146.075C281.299 146.607 281.127 147.18 281.051 147.77C280.857 148.926 280.672 150.037 280.505 151.038C280.162 153.069 279.866 154.819 279.624 156.251C279.382 157.684 279.184 158.781 279.06 159.538C278.994 159.909 278.946 160.19 278.906 160.39C278.867 160.589 278.836 160.707 278.836 160.707Z" fill="#E0E0E0"/>
<path d="M274.292 165.008L274.382 164.908C274.721 164.535 275.19 164.316 275.686 164.299C276.182 164.281 276.665 164.468 277.028 164.817L286.956 174.369C287.318 174.717 287.531 175.199 287.547 175.708C287.564 176.218 287.383 176.713 287.045 177.086L286.955 177.185C286.616 177.558 286.147 177.778 285.651 177.795C285.154 177.812 284.672 177.626 284.309 177.277L274.384 167.727C274.022 167.379 273.81 166.897 273.793 166.388C273.776 165.879 273.957 165.383 274.295 165.011L274.292 165.008Z" fill="#F5F5F5"/>
<path d="M284.306 177.265C284.306 177.265 284.412 177.356 284.637 177.488C284.917 177.651 285.233 177.737 285.555 177.737C285.877 177.737 286.193 177.651 286.473 177.488C286.743 177.313 286.975 177.083 287.156 176.812C287.37 176.484 287.477 176.094 287.459 175.699C287.442 175.304 287.301 174.925 287.059 174.618L276.929 164.904C276.697 164.681 276.411 164.527 276.101 164.458C275.791 164.388 275.469 164.406 275.168 164.51C274.882 164.618 274.624 164.792 274.414 165.018C274.203 165.244 274.045 165.517 273.952 165.815C273.871 166.106 273.862 166.413 273.926 166.709C273.99 167.004 274.125 167.278 274.318 167.506C274.736 167.937 275.199 168.363 275.617 168.771L280.149 173.172L283.188 176.15L284.007 176.971C284.106 177.062 284.197 177.162 284.28 177.27C284.171 177.19 284.068 177.103 283.972 177.007L283.122 176.223L280.039 173.304L275.472 168.948C275.031 168.531 274.591 168.132 274.15 167.669C273.926 167.413 273.768 167.102 273.691 166.766C273.614 166.431 273.621 166.08 273.71 165.747C273.815 165.409 273.994 165.099 274.232 164.842C274.471 164.585 274.764 164.388 275.088 164.265C275.429 164.152 275.792 164.135 276.141 164.215C276.49 164.294 276.813 164.468 277.075 164.718C281.038 168.531 284.606 171.971 287.165 174.509C287.425 174.847 287.573 175.261 287.586 175.691C287.6 176.121 287.478 176.545 287.239 176.898C287.045 177.184 286.793 177.422 286.5 177.596C286.25 177.738 285.973 177.82 285.689 177.837C285.298 177.861 284.91 177.757 284.579 177.542C284.475 177.465 284.383 177.372 284.306 177.265Z" fill="#E0E0E0"/>
<path d="M290.357 153.835C290.904 153.049 291.515 152.313 292.185 151.637C292.795 150.903 293.467 150.226 294.193 149.615C293.649 150.401 293.039 151.136 292.37 151.813C291.76 152.548 291.086 153.225 290.357 153.835Z" fill="#E0E0E0"/>
<path d="M294.153 156.958C294.435 156.454 294.788 155.995 295.201 155.598C295.555 155.15 295.969 154.757 296.43 154.429C296.15 154.935 295.797 155.393 295.382 155.789C295.031 156.239 294.617 156.633 294.153 156.958Z" fill="#E0E0E0"/>
<path d="M296.413 161.115C296.695 160.611 297.048 160.152 297.461 159.755C297.812 159.304 298.228 158.912 298.694 158.59C298.412 159.094 298.059 159.552 297.646 159.95C297.294 160.4 296.878 160.792 296.413 161.115Z" fill="#E0E0E0"/>
<path d="M296.008 139.274C295.56 138.385 295.188 137.457 294.898 136.5C294.525 135.575 294.23 134.618 294.017 133.64C294.464 134.53 294.835 135.458 295.127 136.414C295.499 137.34 295.794 138.297 296.008 139.274Z" fill="#E0E0E0"/>
<path d="M298.628 139.933C299.222 138.804 299.889 137.717 300.623 136.678C301.289 135.592 302.025 134.554 302.825 133.569C302.229 134.698 301.561 135.785 300.826 136.823C300.162 137.91 299.428 138.949 298.628 139.933Z" fill="#E0E0E0"/>
<path d="M300.535 142.24C301.494 141.903 302.478 141.645 303.477 141.47C304.458 141.212 305.458 141.038 306.467 140.948C305.511 141.292 304.528 141.551 303.529 141.723C302.547 141.981 301.545 142.154 300.535 142.24Z" fill="#E0E0E0"/>
<path d="M174.268 238.327L160.126 297.177H163.847L178.337 238.327H174.268Z" fill="#F5F5F5"/>
<path d="M200.905 238.327L214.135 297.177H210.413L196.831 238.327H200.905Z" fill="#F5F5F5"/>
<path d="M189.85 296.311H185.517L184.869 228.767H189.203L189.85 296.311Z" fill="#F5F5F5"/>
<path d="M217.609 189.1H156.467V229.416H217.609V189.1Z" fill="#EBEBEB"/>
<path d="M202.397 237.711H171.709V241.605H202.397V237.711Z" fill="#F5F5F5"/>
<path d="M160.528 224.158C160.565 224.402 160.58 224.649 160.572 224.896H160.488C160.426 222.925 160.378 216.393 160.378 208.651C160.378 203.982 160.413 199.753 160.422 196.643C160.422 195.138 160.457 193.923 160.47 193.017C160.47 192.613 160.47 192.287 160.497 192.024C160.497 191.909 160.507 191.793 160.528 191.68C160.554 191.792 160.564 191.908 160.558 192.024C160.558 192.287 160.558 192.613 160.589 193.017C160.589 193.923 160.616 195.152 160.638 196.643C160.638 199.753 160.664 203.982 160.682 208.651C160.682 216.393 160.633 222.925 160.572 224.896H160.488C160.483 224.649 160.496 224.402 160.528 224.158Z" fill="#F5F5F5"/>
<path d="M165.081 224.158C165.113 224.402 165.126 224.649 165.121 224.896H165.05C164.989 222.925 164.94 216.393 164.94 208.651C164.94 203.982 164.976 199.753 164.984 196.643C165.006 195.138 165.024 193.923 165.033 193.017C165.033 192.613 165.033 192.287 165.064 192.024C165.058 191.908 165.068 191.792 165.094 191.68C165.115 191.793 165.123 191.909 165.121 192.024C165.121 192.287 165.121 192.613 165.152 193.017C165.152 193.923 165.178 195.152 165.2 196.643C165.2 199.753 165.226 203.982 165.244 208.651C165.244 216.393 165.196 222.925 165.134 224.896H165.05C165.038 224.65 165.048 224.402 165.081 224.158Z" fill="#F5F5F5"/>
<path d="M169.63 224.158C169.661 224.402 169.675 224.649 169.67 224.896H169.586C169.524 222.925 169.48 216.393 169.48 208.651C169.48 203.982 169.511 199.753 169.524 196.643C169.524 195.138 169.56 193.923 169.573 193.017C169.573 192.613 169.573 192.287 169.599 192.024C169.596 191.908 169.607 191.793 169.63 191.68C169.654 191.793 169.664 191.908 169.661 192.024C169.661 192.287 169.661 192.613 169.687 193.017C169.687 193.923 169.718 195.152 169.736 196.643C169.736 199.753 169.762 203.982 169.78 208.651C169.78 216.393 169.736 222.925 169.67 224.896H169.586C169.581 224.649 169.595 224.402 169.63 224.158Z" fill="#F5F5F5"/>
<path d="M174.18 224.158C174.215 224.402 174.229 224.649 174.224 224.896H174.14C174.074 222.925 174.03 216.393 174.03 208.651C174.03 203.982 174.061 199.753 174.074 196.643C174.074 195.138 174.109 193.923 174.123 193.017C174.123 192.613 174.145 192.287 174.149 192.024C174.146 191.908 174.156 191.793 174.18 191.68C174.203 191.793 174.214 191.908 174.211 192.024C174.211 192.287 174.211 192.613 174.237 193.017C174.237 193.923 174.268 195.152 174.285 196.643C174.285 199.753 174.312 203.982 174.329 208.651C174.329 216.393 174.285 222.925 174.224 224.896H174.14C174.135 224.649 174.149 224.402 174.18 224.158Z" fill="#F5F5F5"/>
<path d="M178.729 224.158C178.767 224.402 178.782 224.649 178.773 224.896H178.703C178.641 222.925 178.593 216.393 178.593 208.651C178.593 203.982 178.628 199.753 178.637 196.643C178.659 195.138 178.672 193.923 178.685 193.017C178.685 192.613 178.685 192.287 178.712 192.024C178.711 191.909 178.722 191.793 178.742 191.68C178.769 191.792 178.779 191.908 178.773 192.024C178.773 192.287 178.773 192.613 178.804 193.017C178.804 193.923 178.83 195.152 178.852 196.643C178.852 199.753 178.879 203.982 178.896 208.651C178.896 216.393 178.848 222.925 178.786 224.896H178.703C178.693 224.65 178.702 224.403 178.729 224.158Z" fill="#F5F5F5"/>
<path d="M183.283 224.158C183.314 224.402 183.327 224.649 183.322 224.896H183.239C183.177 222.925 183.129 216.393 183.129 208.651C183.129 203.982 183.164 199.753 183.173 196.643C183.173 195.138 183.213 193.923 183.221 193.017C183.221 192.613 183.221 192.287 183.252 192.024C183.246 191.908 183.257 191.792 183.283 191.68C183.303 191.793 183.312 191.909 183.309 192.024C183.309 192.287 183.309 192.613 183.34 193.017C183.34 193.923 183.366 195.152 183.388 196.643C183.388 199.753 183.415 203.982 183.432 208.651C183.432 216.393 183.384 222.925 183.322 224.896H183.239C183.23 224.649 183.245 224.402 183.283 224.158Z" fill="#F5F5F5"/>
<path d="M187.833 224.158C187.865 224.402 187.878 224.649 187.873 224.896H187.789C187.728 222.925 187.684 216.393 187.684 208.651C187.684 203.982 187.714 199.753 187.728 196.643C187.728 195.138 187.763 193.923 187.776 193.017C187.776 192.613 187.776 192.287 187.802 192.024C187.799 191.908 187.81 191.793 187.833 191.68C187.857 191.793 187.867 191.908 187.864 192.024C187.864 192.287 187.864 192.613 187.89 193.017C187.89 193.923 187.921 195.152 187.939 196.643C187.939 199.753 187.965 203.982 187.983 208.651C187.983 216.393 187.939 222.925 187.873 224.896H187.789C187.784 224.649 187.798 224.402 187.833 224.158Z" fill="#F5F5F5"/>
<path d="M192.382 224.158C192.417 224.402 192.432 224.649 192.426 224.896H192.356C192.29 222.925 192.246 216.393 192.246 208.651C192.246 203.982 192.277 199.753 192.29 196.643C192.29 195.138 192.325 193.923 192.338 193.017C192.338 192.613 192.338 192.287 192.365 192.024C192.362 191.908 192.372 191.793 192.396 191.68C192.419 191.793 192.429 191.908 192.426 192.024C192.426 192.287 192.426 192.613 192.453 193.017C192.453 193.923 192.484 195.152 192.501 196.643C192.501 199.753 192.528 203.982 192.545 208.651C192.545 216.393 192.501 222.925 192.44 224.896H192.356C192.347 224.65 192.356 224.403 192.382 224.158Z" fill="#F5F5F5"/>
<path d="M196.932 224.158C196.97 224.402 196.984 224.649 196.976 224.896H196.892C196.831 222.925 196.782 216.393 196.782 208.651C196.782 203.982 196.817 199.753 196.826 196.643C196.826 195.138 196.861 193.923 196.875 193.017C196.875 192.613 196.897 192.287 196.901 192.024C196.901 191.909 196.911 191.793 196.932 191.68C196.958 191.792 196.968 191.908 196.963 192.024C196.963 192.287 196.963 192.613 196.993 193.017C196.993 193.923 197.02 195.152 197.042 196.643C197.042 199.753 197.068 203.982 197.086 208.651C197.086 216.393 197.037 222.925 196.976 224.896H196.892C196.887 224.649 196.9 224.402 196.932 224.158Z" fill="#F5F5F5"/>
<path d="M201.486 224.158C201.517 224.402 201.531 224.649 201.526 224.896H201.442C201.38 222.925 201.332 216.393 201.332 208.651C201.332 203.982 201.367 199.753 201.376 196.643C201.398 195.138 201.416 193.923 201.424 193.017C201.424 192.613 201.424 192.287 201.455 192.024C201.449 191.908 201.46 191.792 201.486 191.68C201.507 191.793 201.517 191.909 201.517 192.024C201.517 192.287 201.517 192.613 201.543 193.017C201.543 193.923 201.57 195.152 201.592 196.643C201.592 199.753 201.618 203.982 201.636 208.651C201.636 216.393 201.587 222.925 201.526 224.896H201.442C201.434 224.649 201.448 224.402 201.486 224.158Z" fill="#F5F5F5"/>
<path d="M206.034 224.158C206.066 224.402 206.079 224.649 206.074 224.896H206.008C205.946 222.925 205.902 216.393 205.902 208.651C205.902 203.982 205.933 199.753 205.946 196.643C205.946 195.138 205.982 193.923 205.995 193.017C205.995 192.613 205.995 192.287 206.021 192.024C206.018 191.908 206.028 191.793 206.052 191.68C206.075 191.793 206.086 191.908 206.083 192.024C206.083 192.287 206.083 192.613 206.109 193.017C206.109 193.923 206.14 195.152 206.158 196.643C206.158 199.753 206.184 203.982 206.202 208.651C206.202 216.393 206.158 222.925 206.092 224.896H206.008C205.997 224.65 206.005 224.403 206.034 224.158Z" fill="#F5F5F5"/>
<path d="M210.585 224.158C210.62 224.402 210.635 224.649 210.629 224.896H210.546C210.48 222.925 210.436 216.393 210.436 208.651C210.436 203.982 210.466 199.753 210.48 196.643C210.48 195.138 210.515 193.923 210.528 193.017C210.528 192.613 210.55 192.287 210.554 192.024C210.551 191.908 210.562 191.793 210.585 191.68C210.609 191.793 210.619 191.908 210.616 192.024C210.616 192.287 210.616 192.613 210.642 193.017C210.642 193.923 210.673 195.152 210.691 196.643C210.691 199.753 210.717 203.982 210.735 208.651C210.735 216.393 210.691 222.925 210.629 224.896H210.546C210.541 224.649 210.554 224.402 210.585 224.158Z" fill="#F5F5F5"/>
<path d="M215.134 224.158C215.172 224.402 215.186 224.649 215.178 224.896H215.094C215.033 222.925 214.984 216.393 214.984 208.651C214.984 203.982 215.02 199.753 215.028 196.643C215.05 195.138 215.064 193.923 215.077 193.017C215.077 192.613 215.077 192.287 215.103 192.024C215.103 191.909 215.113 191.793 215.134 191.68C215.16 191.792 215.171 191.908 215.165 192.024C215.165 192.287 215.165 192.613 215.196 193.017C215.196 193.923 215.222 195.152 215.244 196.643C215.244 199.753 215.27 203.982 215.288 208.651C215.288 216.393 215.24 222.925 215.178 224.896H215.094C215.089 224.649 215.103 224.402 215.134 224.158Z" fill="#F5F5F5"/>
<path d="M202.313 150.106L198.882 181.922C198.296 187.335 196.363 195.158 188.096 193.821C181.006 192.099 179.94 184.855 180.491 179.805C180.75 177.412 180.962 175.413 180.975 175.168C180.975 175.168 173.188 173.505 173.488 165.423C173.633 161.52 174.563 153.497 175.487 146.253C175.968 142.501 177.803 139.072 180.628 136.65C183.454 134.227 187.062 132.989 190.735 133.181L191.492 133.217C199.631 134.119 203.423 141.757 202.313 150.106Z" fill="#936760"/>
<path d="M180.975 175.168C184.6 175.345 188.198 174.449 191.342 172.585C191.342 172.585 188.563 178.355 180.772 177.222L180.975 175.168Z" fill="#6F4C47"/>
<path d="M188.357 151.221C188.493 151.402 189.48 150.768 190.784 150.904C192.087 151.04 192.986 151.81 193.14 151.661C193.219 151.588 193.091 151.276 192.699 150.913C192.175 150.447 191.522 150.163 190.832 150.102C190.151 150.032 189.467 150.191 188.881 150.555C188.471 150.849 188.308 151.14 188.357 151.221Z" fill="#263238"/>
<path d="M188.079 153.995C188.063 154.28 188.155 154.559 188.336 154.775C188.517 154.991 188.772 155.126 189.048 155.151C189.182 155.169 189.319 155.159 189.449 155.121C189.58 155.084 189.702 155.02 189.808 154.933C189.914 154.847 190.003 154.739 190.068 154.617C190.133 154.495 190.174 154.361 190.188 154.222C190.204 153.938 190.112 153.659 189.931 153.444C189.75 153.229 189.495 153.095 189.22 153.071C189.086 153.053 188.949 153.063 188.819 153.1C188.689 153.137 188.567 153.2 188.461 153.287C188.355 153.373 188.266 153.48 188.201 153.601C188.135 153.723 188.094 153.857 188.079 153.995Z" fill="#263238"/>
<path d="M183.992 160.128C183.992 160.056 183.261 159.884 182.054 159.675C181.746 159.625 181.459 159.548 181.415 159.331C181.409 159.009 181.497 158.694 181.666 158.424L182.697 156.058C184.128 152.685 185.181 149.907 185.049 149.852C184.917 149.798 183.648 152.477 182.217 155.849C181.868 156.677 181.537 157.471 181.226 158.229C181.011 158.601 180.933 159.04 181.006 159.467C181.044 159.581 181.108 159.685 181.192 159.77C181.276 159.855 181.378 159.919 181.49 159.956C181.658 160.014 181.833 160.048 182.01 160.056C183.226 160.151 183.983 160.196 183.992 160.128Z" fill="#263238"/>
<path d="M189.533 146.253C189.625 146.566 190.691 146.475 191.933 146.706C193.175 146.938 194.166 147.346 194.342 147.078C194.426 146.947 194.263 146.625 193.871 146.33C193.353 145.932 192.748 145.671 192.109 145.569C191.475 145.452 190.822 145.5 190.211 145.709C189.74 145.877 189.497 146.104 189.533 146.253Z" fill="#263238"/>
<path d="M177.294 146.253C177.404 146.511 178.452 146.371 179.685 146.488C180.918 146.606 181.927 146.901 182.085 146.66C182.156 146.547 181.98 146.307 181.574 146.058C181.031 145.751 180.431 145.567 179.813 145.519C179.182 145.458 178.545 145.535 177.945 145.745C177.474 145.904 177.249 146.126 177.294 146.253Z" fill="#263238"/>
<path d="M201.379 156.053C201.515 155.999 206.853 154.694 206.413 160.205C205.972 165.717 200.688 164.122 200.688 163.963C200.688 163.804 201.379 156.053 201.379 156.053Z" fill="#936760"/>
<path d="M202.49 162.014C202.516 162.014 202.578 162.091 202.732 162.177C202.946 162.294 203.196 162.32 203.428 162.25C204.009 162.087 204.56 161.203 204.666 160.21C204.718 159.739 204.666 159.262 204.516 158.814C204.479 158.637 204.402 158.472 204.29 158.333C204.178 158.194 204.035 158.086 203.873 158.016C203.768 157.978 203.653 157.979 203.549 158.019C203.444 158.059 203.356 158.135 203.3 158.234C203.217 158.379 203.243 158.492 203.212 158.501C203.181 158.51 203.106 158.397 203.168 158.175C203.207 158.04 203.292 157.925 203.406 157.848C203.561 157.745 203.749 157.709 203.93 157.749C204.146 157.813 204.343 157.932 204.502 158.096C204.661 158.261 204.776 158.464 204.837 158.687C205.03 159.183 205.1 159.72 205.04 160.251C204.917 161.361 204.282 162.354 203.49 162.517C203.342 162.548 203.189 162.544 203.043 162.507C202.897 162.469 202.76 162.398 202.644 162.3C202.49 162.15 202.472 162.023 202.49 162.014Z" fill="#6F4C47"/>
<path d="M184.794 164.085C184.754 163.94 185.838 163.75 186.692 162.834C187.05 162.431 187.355 161.982 187.599 161.497C187.802 161.116 187.952 160.881 188.009 160.908C188.066 160.935 188.009 161.202 187.877 161.624C187.695 162.189 187.394 162.706 186.996 163.138C186.591 163.576 186.075 163.89 185.507 164.045C185.08 164.158 184.803 164.135 184.794 164.085Z" fill="#263238"/>
<path d="M176.905 149.485C177.042 149.666 178.028 149.032 179.332 149.168C180.635 149.304 181.534 150.074 181.688 149.92C181.767 149.852 181.64 149.539 181.248 149.177C180.725 148.709 180.071 148.425 179.38 148.365C178.699 148.296 178.015 148.455 177.429 148.819C177.006 149.113 176.844 149.403 176.905 149.485Z" fill="#263238"/>
<path d="M176.817 152.563C176.801 152.848 176.893 153.127 177.074 153.343C177.255 153.559 177.51 153.694 177.786 153.719C177.919 153.737 178.054 153.727 178.183 153.692C178.312 153.656 178.433 153.594 178.539 153.509C178.645 153.425 178.734 153.32 178.801 153.201C178.867 153.081 178.91 152.949 178.927 152.812C178.945 152.529 178.854 152.249 178.674 152.033C178.493 151.818 178.238 151.684 177.962 151.661C177.829 151.642 177.694 151.65 177.564 151.685C177.435 151.72 177.313 151.782 177.207 151.866C177.1 151.95 177.011 152.054 176.944 152.174C176.877 152.294 176.834 152.426 176.817 152.563Z" fill="#263238"/>
<path d="M205.612 151.121C205.22 152.658 204.29 156.162 202.969 155.849C200.327 155.233 200.481 159.593 199.204 159.081C197.926 158.569 197.627 155.101 197.772 153.719C198.213 149.399 199.825 146.299 198.05 141.367C197.499 140.388 196.712 139.572 195.766 138.998C194.819 138.424 193.744 138.111 192.646 138.09C191.539 138.09 190.451 138.382 189.484 138.938C188.517 139.493 187.705 140.293 187.123 141.263C186.85 139.753 186.084 137.487 184.758 136.789C184.095 136.432 183.344 136.285 182.6 136.366C181.856 136.447 181.151 136.751 180.574 137.242C180.024 137.762 179.676 138.47 179.595 139.235C179.514 140 179.705 140.768 180.134 141.399C179.832 141.498 179.508 141.496 179.207 141.393C178.907 141.289 178.647 141.09 178.465 140.823C178.446 141.178 178.499 141.532 178.62 141.865C178.74 142.198 178.926 142.502 179.165 142.758C178.622 142.634 178.14 142.312 177.808 141.852L178.249 143.719C176.047 143.833 173.805 141.675 173.144 139.721C172.145 136.757 172.796 133.729 174.355 131.036C175.915 128.344 178.76 126.404 181.843 126.359C184.925 126.313 187.475 127.741 188.713 130.606C190.66 129.119 194.654 128.525 196.878 129.504C197.99 130.008 198.959 130.797 199.691 131.795C200.423 132.793 200.895 133.968 201.062 135.207C202.428 134.577 204.092 135.003 205.277 135.946L205.563 136.19C206.356 136.932 206.953 137.869 207.298 138.913C207.643 139.957 207.725 141.074 207.536 142.16C207.395 143.03 207.122 143.937 206.968 144.64C206.449 146.72 205.612 151.121 205.612 151.121Z" fill="#263238"/>
<path d="M178.086 140.705C178.086 140.705 178.015 140.664 177.905 140.565C177.743 140.421 177.595 140.26 177.465 140.084C176.961 139.43 176.643 138.646 176.544 137.818C176.456 137.207 176.495 136.583 176.66 135.989C176.825 135.395 177.111 134.844 177.5 134.373C177.977 133.793 178.584 133.341 179.268 133.057C179.953 132.773 180.694 132.664 181.429 132.741C182.184 132.838 182.909 133.111 183.547 133.539C184.142 133.924 184.676 134.403 185.128 134.958C185.896 135.881 186.462 136.963 186.788 138.131C187.008 138.919 187.113 139.736 187.101 140.556C187.101 140.846 187.075 141.068 187.053 141.217C187.048 141.294 187.035 141.37 187.013 141.444C187.061 140.341 186.933 139.237 186.634 138.176C186.295 137.034 185.726 135.977 184.965 135.075C184.069 133.944 182.802 133.188 181.402 132.949C180.705 132.88 180.001 132.983 179.35 133.251C178.699 133.519 178.121 133.944 177.663 134.491C177.288 134.938 177.009 135.461 176.845 136.027C176.68 136.592 176.633 137.187 176.707 137.772C176.786 138.58 177.068 139.352 177.526 140.012C177.857 140.488 178.099 140.687 178.086 140.705Z" fill="#455A64"/>
<path d="M177.121 143.117C177.058 143.039 177.003 142.954 176.958 142.863C176.857 142.69 176.712 142.409 176.518 142.101C175.997 141.165 175.566 140.178 175.232 139.155C175.007 138.44 174.875 137.698 174.84 136.947C174.797 136.079 174.93 135.212 175.232 134.4C175.584 133.5 176.186 132.728 176.963 132.179C177.793 131.593 178.757 131.24 179.759 131.154C180.757 131.075 181.76 131.216 182.701 131.567C183.575 131.891 184.396 132.35 185.137 132.927C186.429 133.866 187.383 135.219 187.85 136.775C188.141 137.83 188.111 138.951 187.766 139.989C187.669 140.265 187.545 140.531 187.396 140.782C187.344 140.87 187.286 140.954 187.22 141.031C187.395 140.686 187.543 140.327 187.66 139.957C187.962 138.935 187.962 137.843 187.66 136.82C187.184 135.313 186.242 134.006 184.978 133.099C183.501 131.922 181.666 131.32 179.799 131.399C178.835 131.484 177.909 131.823 177.108 132.383C176.366 132.905 175.789 133.639 175.448 134.495C175.151 135.277 175.015 136.113 175.047 136.952C175.074 137.687 175.194 138.415 175.404 139.119C175.723 140.137 176.128 141.124 176.615 142.069L176.998 142.854C177.047 142.937 177.088 143.025 177.121 143.117Z" fill="#455A64"/>
<path d="M203.705 147.717C203.679 147.681 204.176 147.305 204.789 146.516C205.593 145.498 206.136 144.287 206.367 142.996C206.598 141.705 206.51 140.374 206.11 139.128C205.806 138.167 205.471 137.632 205.511 137.614C205.55 137.595 205.617 137.727 205.762 137.976C205.962 138.325 206.13 138.692 206.264 139.073C206.717 140.341 206.831 141.71 206.594 143.039C206.357 144.367 205.778 145.606 204.916 146.625C204.659 146.931 204.376 147.213 204.071 147.468C203.961 147.569 203.838 147.653 203.705 147.717Z" fill="#455A64"/>
<path d="M198.979 147.672C198.979 147.649 199.235 147.545 199.64 147.246C200.204 146.828 200.645 146.256 200.913 145.596L201.116 145.079L201.08 145.637C201.032 146.389 200.975 147.255 200.917 148.198L200.746 148.098C201.475 147.558 202.094 146.874 202.566 146.087C203.039 145.3 203.355 144.424 203.498 143.511C203.617 142.676 203.593 141.826 203.428 141C203.251 140.241 202.988 139.506 202.644 138.81C202.682 138.85 202.716 138.894 202.745 138.942C202.831 139.07 202.911 139.203 202.983 139.341C203.252 139.852 203.453 140.398 203.582 140.963C203.892 142.322 203.799 143.746 203.315 145.05C202.832 146.354 201.98 147.479 200.869 148.28L200.68 148.416V148.18L200.886 145.623L201.058 145.664C200.767 146.347 200.288 146.927 199.68 147.332C199.515 147.441 199.341 147.533 199.16 147.609C199.103 147.637 199.042 147.658 198.979 147.672Z" fill="#455A64"/>
<path d="M197.288 136.462C196.974 135.881 196.554 135.369 196.051 134.953C195.495 134.525 194.849 134.239 194.166 134.119C193.325 133.978 192.462 134.078 191.673 134.409C190.881 134.735 190.176 135.251 189.616 135.914C189.161 136.453 188.795 137.066 188.533 137.727C188.31 138.354 188.135 138.998 188.009 139.653C187.991 139.472 188 139.288 188.035 139.109C188.097 138.617 188.212 138.134 188.379 137.668C188.63 136.972 188.995 136.325 189.458 135.755C190.033 135.057 190.764 134.514 191.589 134.173C192.418 133.828 193.324 133.729 194.205 133.888C194.919 134.029 195.588 134.349 196.152 134.821C196.53 135.136 196.847 135.523 197.086 135.959C197.149 136.078 197.205 136.2 197.253 136.326C197.273 136.369 197.284 136.415 197.288 136.462Z" fill="#455A64"/>
<path d="M195.985 132.419C195.516 132.19 195.027 132.011 194.523 131.884C193.316 131.65 192.068 131.864 190.999 132.487C189.94 133.147 189.086 134.105 188.538 135.247C188.097 136.118 187.978 136.721 187.939 136.707C187.937 136.562 187.959 136.418 188.005 136.281C188.102 135.9 188.232 135.528 188.392 135.17C188.917 133.977 189.784 132.978 190.876 132.306C191.996 131.645 193.318 131.444 194.576 131.743C194.952 131.84 195.313 131.993 195.646 132.197C195.769 132.254 195.883 132.329 195.985 132.419Z" fill="#455A64"/>
<path d="M164.248 257.97L213.46 258.659C213.46 258.659 227.223 252.73 231.006 252.571C234.789 252.412 242.294 252.907 245.764 258.659C249.354 264.606 249.856 275.095 238.797 282.715C228.025 290.139 178.773 296.997 172.021 296.367L159.584 279.17C159.584 279.17 159.456 265.077 159.584 264.406C159.712 263.735 161.786 257.698 161.786 257.698L164.248 257.97Z" fill="#263238"/>
<path d="M193.712 281.758L219.216 291.508L207.594 324.222C204.625 322.889 204.542 303.67 204.542 303.67L187.951 298.113L193.712 281.758Z" fill="#2388C6"/>
<g opacity="0.6">
<path opacity="0.6" d="M206.757 293.036C206.962 292.756 207.26 292.564 207.594 292.496C207.928 292.428 208.274 292.49 208.567 292.669C208.847 292.868 209.042 293.17 209.111 293.513C209.18 293.855 209.117 294.212 208.937 294.509C208.554 295.089 207.541 295.334 207.017 294.89C206.493 294.446 206.334 293.394 206.841 292.927" fill="white"/>
</g>
<path d="M219.217 291.508L216.64 290.502L206.44 322.322C206.44 322.322 206.537 324.013 207.594 324.222L219.217 291.508Z" fill="#263238"/>
<path d="M204.212 304.137C204.37 304.191 204.722 303.42 205.502 302.822C206.282 302.224 207.083 302.052 207.074 301.879C207.065 301.707 206.083 301.612 205.154 302.333C204.225 303.053 204.035 304.1 204.212 304.137Z" fill="#263238"/>
<path d="M204.353 308.089C204.489 308.18 204.996 307.591 205.846 307.296C206.696 307.002 207.444 307.101 207.497 306.943C207.55 306.784 206.704 306.349 205.656 306.734C204.608 307.119 204.212 308.031 204.353 308.089Z" fill="#263238"/>
<path d="M207.647 311.539C207.735 311.407 207.034 310.891 206.039 310.981C205.044 311.072 204.44 311.693 204.546 311.81C204.652 311.928 205.268 311.634 206.088 311.57C206.907 311.507 207.576 311.693 207.647 311.539Z" fill="#263238"/>
<path d="M200.547 302.441C200.71 302.441 200.759 301.612 201.137 300.732C201.516 299.853 202.045 299.25 201.943 299.119C201.842 298.987 201.063 299.454 200.622 300.478C200.182 301.503 200.397 302.473 200.547 302.441Z" fill="#263238"/>
<path d="M197.051 300.243C197.117 300.266 197.434 299.672 197.628 298.602C197.733 297.972 197.766 297.331 197.725 296.694C197.697 296.316 197.647 295.941 197.575 295.569C197.538 295.349 197.47 295.135 197.372 294.935C197.3 294.788 197.183 294.67 197.038 294.601C196.894 294.531 196.731 294.513 196.575 294.55C196.438 294.589 196.312 294.66 196.208 294.759C196.103 294.857 196.022 294.98 195.972 295.116C195.898 295.323 195.852 295.54 195.835 295.76C195.793 296.141 195.786 296.525 195.813 296.907C195.861 297.552 196.01 298.186 196.254 298.783C196.668 299.799 197.134 300.275 197.205 300.234C197.275 300.193 196.923 299.626 196.637 298.643C196.469 298.07 196.374 297.477 196.355 296.879C196.344 296.53 196.362 296.179 196.408 295.832C196.443 295.452 196.544 295.157 196.725 295.125C196.795 295.125 196.817 295.125 196.892 295.23C196.959 295.374 197.007 295.526 197.038 295.683C197.114 296.027 197.172 296.375 197.209 296.725C197.273 297.328 197.281 297.935 197.236 298.539C197.165 299.568 196.967 300.211 197.051 300.243Z" fill="#263238"/>
<path d="M197.35 300.116C197.394 300.071 196.95 299.545 195.963 299.105C195.387 298.848 194.771 298.695 194.144 298.652C193.77 298.633 193.396 298.651 193.026 298.707C192.785 298.716 192.55 298.789 192.345 298.919C192.139 299.05 191.97 299.232 191.854 299.45C191.805 299.596 191.797 299.753 191.832 299.904C191.867 300.054 191.944 300.191 192.052 300.297C192.208 300.453 192.384 300.584 192.576 300.687C192.912 300.878 193.275 301.014 193.651 301.091C194.277 301.227 194.927 301.199 195.54 301.009C196.593 300.683 197.016 300.103 196.967 300.053C196.919 300.003 196.412 300.411 195.448 300.606C194.89 300.715 194.317 300.699 193.765 300.56C193.448 300.477 193.143 300.35 192.858 300.184C192.537 300.003 192.312 299.772 192.391 299.654C192.471 299.536 192.801 299.309 193.118 299.278C193.45 299.22 193.786 299.193 194.122 299.196C194.7 299.209 195.274 299.303 195.827 299.477C196.773 299.808 197.293 300.198 197.35 300.116Z" fill="#263238"/>
<path d="M172.678 277.715L148.015 289.5L162.108 321.176C164.962 319.607 163.579 300.438 163.579 300.438L179.694 293.557L172.678 277.715Z" fill="#2388C6"/>
<g opacity="0.6">
<path opacity="0.6" d="M160.535 290.012C160.31 289.75 159.998 289.582 159.66 289.541C159.322 289.5 158.981 289.589 158.703 289.79C158.439 290.012 158.268 290.33 158.226 290.678C158.184 291.026 158.274 291.377 158.478 291.658C158.918 292.202 159.927 292.365 160.416 291.88C160.905 291.395 160.984 290.334 160.442 289.913" fill="white"/>
</g>
<path d="M148.002 289.496L150.49 288.308L163.091 319.186C163.091 319.186 163.121 320.877 162.086 321.171L148.002 289.496Z" fill="#263238"/>
<path d="M163.945 300.873C163.79 300.941 163.376 300.198 162.557 299.663C161.738 299.128 160.923 299.024 160.919 298.851C160.915 298.679 161.888 298.502 162.87 299.169C163.852 299.835 164.094 300.841 163.945 300.873Z" fill="#263238"/>
<path d="M164.086 304.826C163.953 304.93 163.403 304.373 162.531 304.155C161.659 303.937 160.923 304.091 160.862 303.937C160.8 303.783 161.606 303.28 162.681 303.579C163.755 303.878 164.226 304.753 164.086 304.826Z" fill="#263238"/>
<path d="M161.051 308.533C160.958 308.406 161.61 307.836 162.61 307.845C163.61 307.854 164.261 308.424 164.164 308.551C164.068 308.678 163.429 308.433 162.61 308.438C161.791 308.443 161.143 308.678 161.051 308.533Z" fill="#263238"/>
<path d="M167.446 298.888C167.278 298.888 167.173 298.076 166.723 297.233C166.274 296.39 165.706 295.828 165.803 295.688C165.9 295.547 166.719 295.951 167.234 296.957C167.75 297.963 167.595 298.906 167.446 298.888Z" fill="#263238"/>
<path d="M170.763 296.394C170.701 296.426 170.322 295.855 170.067 294.803C169.909 294.185 169.826 293.548 169.82 292.909C169.819 292.531 169.841 292.155 169.886 291.78C169.902 291.556 169.953 291.335 170.036 291.127C170.096 290.974 170.204 290.846 170.343 290.764C170.482 290.682 170.644 290.65 170.802 290.674C170.943 290.699 171.075 290.759 171.187 290.848C171.3 290.938 171.39 291.053 171.45 291.186C171.539 291.401 171.597 291.629 171.622 291.862C171.692 292.238 171.729 292.621 171.732 293.004C171.734 293.648 171.639 294.289 171.45 294.903C171.115 295.95 170.666 296.467 170.613 296.426C170.56 296.385 170.842 295.801 171.054 294.794C171.177 294.211 171.226 293.614 171.199 293.018C171.184 292.667 171.14 292.318 171.067 291.975C171.005 291.603 170.882 291.313 170.697 291.295C170.626 291.295 170.604 291.295 170.538 291.413C170.485 291.559 170.449 291.711 170.433 291.866C170.381 292.216 170.35 292.569 170.34 292.922C170.32 293.529 170.357 294.136 170.45 294.735C170.622 295.76 170.847 296.394 170.763 296.394Z" fill="#263238"/>
<path d="M170.458 296.313C170.41 296.268 170.81 295.706 171.757 295.193C172.651 294.718 173.656 294.507 174.66 294.582C174.901 294.571 175.141 294.624 175.356 294.737C175.572 294.85 175.755 295.018 175.888 295.225C175.948 295.368 175.966 295.525 175.942 295.678C175.918 295.832 175.852 295.975 175.752 296.091C175.608 296.257 175.442 296.402 175.259 296.521C174.938 296.738 174.588 296.903 174.219 297.011C173.605 297.195 172.956 297.22 172.33 297.084C171.255 296.839 170.788 296.281 170.832 296.24C170.876 296.2 171.414 296.558 172.391 296.694C172.955 296.758 173.526 296.697 174.065 296.512C174.378 296.405 174.675 296.253 174.946 296.059C175.25 295.855 175.461 295.606 175.386 295.497C175.292 295.391 175.176 295.308 175.046 295.253C174.917 295.198 174.777 295.173 174.638 295.18C174.301 295.146 173.961 295.146 173.625 295.18C173.05 295.236 172.487 295.376 171.951 295.597C171.004 295.941 170.515 296.395 170.458 296.313Z" fill="#263238"/>
<path d="M161.8 257.702C161.8 257.702 140.546 249.543 132.733 250.586C128.359 251.179 121.52 254.615 120.996 260.386C120.472 266.156 121.846 273.875 129.408 277.633C136.97 281.391 167.156 295.334 174.33 297.478C181.504 299.622 199.367 304.653 199.367 304.653L206.159 284.709C206.159 284.709 169.098 271.5 167.142 270.022C165.187 268.545 160.232 266.537 160.232 266.537L161.8 257.702Z" fill="#263238"/>
<path d="M235.688 260.408L235.538 260.372L235.098 260.236C234.724 260.123 234.169 259.955 233.447 259.783C231.409 259.251 229.297 259.089 227.206 259.307C225.764 259.434 224.338 259.713 222.951 260.141C222.182 260.381 221.432 260.684 220.71 261.048L218.398 262.212C215.218 263.776 211.664 265.385 207.885 266.913C200.31 270.036 193.038 271.518 187.855 272.733C185.256 273.322 183.151 273.812 181.689 274.165L180.02 274.573L179.579 274.673L179.43 274.7C179.474 274.676 179.521 274.659 179.571 274.65L180.011 274.528C180.39 274.424 180.945 274.261 181.671 274.075C183.112 273.694 185.195 273.168 187.806 272.57C192.986 271.314 200.235 269.809 207.784 266.677C211.562 265.141 215.112 263.55 218.292 261.995L220.608 260.844C221.342 260.479 222.104 260.175 222.885 259.937C224.285 259.51 225.724 259.238 227.179 259.126C229.295 258.917 231.431 259.104 233.482 259.679C234.204 259.869 234.755 260.05 235.129 260.182L235.547 260.34L235.688 260.408Z" fill="#455A64"/>
<path d="M234.569 257.525C234.569 257.566 233.922 257.444 232.883 257.33C230.169 257.023 227.425 257.168 224.757 257.761C223.731 257.983 223.105 258.168 223.097 258.132C223.236 258.054 223.384 257.995 223.537 257.956C223.815 257.856 224.224 257.729 224.735 257.598C226.07 257.253 227.434 257.044 228.809 256.972C230.181 256.901 231.557 256.965 232.918 257.163C233.442 257.244 233.86 257.326 234.147 257.394C234.292 257.422 234.433 257.466 234.569 257.525Z" fill="#455A64"/>
<path d="M152.859 263.486C152.837 263.518 152.247 263.033 151.229 262.403C148.572 260.702 145.585 259.619 142.478 259.23C141.289 259.076 140.545 259.062 140.545 259.021C140.718 258.989 140.894 258.979 141.069 258.99C141.408 258.99 141.897 258.99 142.496 259.062C145.643 259.37 148.668 260.471 151.304 262.267C151.704 262.534 152.089 262.823 152.458 263.133C152.606 263.232 152.741 263.351 152.859 263.486Z" fill="#455A64"/>
<path d="M163.526 293.222L163.694 293.285L164.174 293.494C164.614 293.675 165.222 293.974 166.054 294.305C167.71 294.98 170.155 295.905 173.295 296.97C179.571 299.078 188.595 301.771 199.394 304.567L199.275 304.635L205.846 285.865L205.907 286.014L197.769 282.574L152.745 263.486C150.913 261.492 149.222 259.733 147.645 258.31C146.305 257.093 144.875 255.985 143.369 254.996C142.421 254.382 141.442 253.821 140.435 253.314L139.647 252.934L139.383 252.798L139.656 252.915L140.453 253.274C141.47 253.763 142.458 254.314 143.413 254.924C144.933 255.902 146.374 257.004 147.724 258.219C149.319 259.633 151.014 261.392 152.855 263.377H152.829L197.857 282.343L205.996 285.783L206.092 285.824L206.057 285.933L199.451 304.694L199.42 304.785L199.328 304.762C188.529 301.943 179.509 299.223 173.237 297.056C170.102 295.978 167.662 295.03 166.01 294.337C165.182 294.001 164.566 293.689 164.143 293.498L163.667 293.276L163.526 293.222Z" fill="#455A64"/>
<path d="M216.059 187.983C216.059 187.983 222.181 191.609 223.423 195.874C224.176 198.462 229.884 231.579 230.786 238.107C231.689 244.634 229.782 249.475 227.078 251.642C224.374 253.809 216.169 256.691 216.169 256.691L204.652 260.54L201.345 251.873L212.311 235.654L211.258 224.699L216.059 187.983Z" fill="#2388C6"/>
<path d="M204.031 182.262L199.433 179.542C199.433 179.542 195.245 184.583 189.533 183.967C183.821 183.35 180.429 178.867 180.429 178.867L163.394 182.434C162.254 182.67 160.17 183.414 158.175 186.346C155.951 189.614 145.403 204.115 145.403 204.115H138.04C137.042 204.115 136.064 204.395 135.21 204.926C134.356 205.456 133.66 206.217 133.195 207.125C131.935 209.595 130.425 212.895 130.553 214.264C130.804 216.58 130.368 222.931 133.384 224.912C134.34 225.542 137.758 227.427 140.431 227.301C144.346 227.11 148.896 225.011 151.516 223.126C153.718 221.526 158.893 216.005 160.879 213.852V213.897L162.157 259.883L206.815 258.577L216.063 187.992C216.063 187.992 204.48 182.262 204.031 182.262Z" fill="#2388C6"/>
<path d="M160.716 194.587C160.778 194.587 160.897 200.285 160.976 207.315C161.055 214.346 161.073 220.048 161.007 220.048C160.941 220.048 160.826 214.35 160.747 207.32C160.668 200.289 160.655 194.587 160.716 194.587Z" fill="#263238"/>
<path d="M221.467 231.761C221.467 231.761 221.088 231.824 220.414 231.956C219.462 232.151 218.534 232.455 217.648 232.862C216.337 233.471 215.1 234.24 213.966 235.151C212.576 236.271 211.279 237.507 210.086 238.846C208.809 240.265 207.646 241.665 206.563 242.925C205.601 244.035 204.585 245.094 203.52 246.098C202.799 246.778 202.035 247.408 201.234 247.984C200.952 248.188 200.719 248.324 200.564 248.437C200.489 248.493 200.408 248.538 200.322 248.573C200.388 248.507 200.461 248.448 200.538 248.396C200.683 248.283 200.908 248.134 201.181 247.916C201.96 247.318 202.704 246.673 203.41 245.985C204.312 245.124 205.321 244.027 206.404 242.771C207.488 241.516 208.651 240.11 209.928 238.692C211.13 237.345 212.441 236.106 213.847 234.988C214.999 234.076 216.257 233.315 217.591 232.722C218.492 232.324 219.437 232.041 220.405 231.879C220.749 231.811 221.017 231.811 221.198 231.788C221.286 231.768 221.376 231.759 221.467 231.761Z" fill="#263238"/>
<path d="M222.479 228.647C222.479 228.688 221.801 228.787 220.717 229.1C217.933 229.893 215.406 231.442 213.402 233.583C212.636 234.404 212.226 234.975 212.195 234.943C212.263 234.792 212.349 234.651 212.451 234.521C212.705 234.151 212.983 233.798 213.283 233.465C215.25 231.227 217.825 229.648 220.673 228.932C221.101 228.824 221.535 228.741 221.973 228.683C222.139 228.647 222.309 228.635 222.479 228.647Z" fill="#263238"/>
<g opacity="0.3">
<path opacity="0.3" d="M139.36 220.574C141.725 221.235 144.562 217.736 146.711 215.547C147.825 214.404 148.988 213.19 149.402 211.626C149.693 210.312 149.561 208.936 149.027 207.705C148.631 206.595 148.103 205.54 147.455 204.564C147.653 206.454 148.107 209.346 147.49 211.721C146.975 213.702 145.755 215.275 144.46 216.771C143.095 218.352 141.474 220.012 139.36 220.574Z" fill="black"/>
</g>
<path d="M149.468 218.57C149.424 218.57 149.697 217.768 149.908 216.449C150.037 215.677 150.109 214.897 150.124 214.114C150.14 213.157 150.078 212.201 149.939 211.254C149.787 210.309 149.56 209.378 149.261 208.471C149.01 207.732 148.707 207.012 148.354 206.318C147.75 205.13 147.253 204.469 147.288 204.441C147.427 204.577 147.549 204.729 147.653 204.895C147.792 205.074 147.92 205.261 148.037 205.457C148.178 205.683 148.345 205.937 148.499 206.236C148.875 206.928 149.196 207.65 149.459 208.394C149.776 209.31 150.012 210.254 150.164 211.213C150.307 212.175 150.365 213.147 150.336 214.119C150.312 214.913 150.222 215.703 150.067 216.481C150.014 216.816 149.93 217.106 149.864 217.387C149.811 217.61 149.746 217.829 149.671 218.044C149.619 218.226 149.552 218.402 149.468 218.57Z" fill="#263238"/>
<path d="M182.296 180.644C182.327 180.703 181.803 181.015 181.257 181.523C180.711 182.031 180.341 182.525 180.288 182.484C180.48 182.05 180.758 181.663 181.103 181.346C181.449 181.029 181.856 180.79 182.296 180.644Z" fill="#263238"/>
<path d="M186.943 183.422C186.991 183.472 186.542 183.966 186.181 184.701C185.82 185.435 185.683 186.097 185.617 186.061C185.585 185.537 185.712 185.016 185.978 184.569C186.181 184.096 186.517 183.696 186.943 183.422Z" fill="#263238"/>
<path d="M194.901 186.305C194.688 185.87 194.517 185.415 194.39 184.946C194.196 184.499 194.049 184.033 193.95 183.554C194.261 183.938 194.489 184.386 194.619 184.868C194.813 185.321 194.91 185.811 194.901 186.305Z" fill="#263238"/>
<path d="M200.023 183.812C199.953 183.812 199.781 183.028 199.275 182.181C198.768 181.333 198.169 180.798 198.218 180.744C198.753 181.044 199.19 181.502 199.473 182.058C199.821 182.574 200.013 183.185 200.023 183.812Z" fill="#263238"/>
<path d="M214.724 198.707C214.79 198.707 214.033 204.999 213.037 212.737C212.042 220.474 211.183 226.743 211.122 226.734C211.06 226.725 211.813 220.447 212.808 212.705C213.804 204.963 214.663 198.698 214.724 198.707Z" fill="#263238"/>
<path d="M147.803 208.879C147.82 209.095 147.82 209.311 147.803 209.527C147.791 209.781 147.76 210.035 147.71 210.284C147.684 210.434 147.662 210.588 147.631 210.737C147.6 210.887 147.552 211.073 147.503 211.254C147.286 212.104 146.991 212.932 146.623 213.725C146.16 214.69 145.61 215.608 144.98 216.467C144.332 217.319 143.593 218.095 142.778 218.779C142.107 219.332 141.366 219.789 140.576 220.139C140.404 220.207 140.245 220.284 140.091 220.343L139.651 220.469L139.263 220.578C139.144 220.605 139.03 220.61 138.929 220.628C138.72 220.662 138.51 220.679 138.299 220.678C139.054 220.524 139.792 220.292 140.501 219.984C141.261 219.624 141.974 219.168 142.624 218.625C143.409 217.948 144.123 217.188 144.755 216.358C145.376 215.513 145.922 214.612 146.385 213.666C146.757 212.887 147.064 212.078 147.301 211.245C147.508 210.466 147.675 209.676 147.803 208.879Z" fill="#263238"/>
<g opacity="0.3">
<path opacity="0.3" d="M213.288 261.446C215.182 260.503 215.613 257.979 215.807 255.821C216.371 249.508 216.936 243.191 217.503 236.869C217.771 233.9 217.899 230.523 215.864 228.384C214.006 226.444 211.051 226.33 208.404 226.339C192.064 226.385 177.632 226.879 161.279 226.924L162.112 256.347L213.288 261.446Z" fill="black"/>
</g>
<path d="M154.247 231.484L155.987 265.607C156.023 266.245 156.295 266.844 156.747 267.28C157.2 267.717 157.798 267.959 158.418 267.955L211.232 268.051C211.854 268.053 212.452 267.81 212.905 267.371C213.357 266.933 213.628 266.332 213.663 265.694L215.676 232.15C215.747 230.754 214.795 228.9 213.412 228.873H156.727C156.394 228.864 156.063 228.926 155.754 229.055C155.445 229.183 155.166 229.376 154.933 229.621C154.7 229.867 154.519 230.159 154.401 230.479C154.283 230.8 154.231 231.142 154.247 231.484Z" fill="#E0E0E0"/>
<path d="M154.247 231.484C154.247 231.484 154.247 231.439 154.247 231.357C154.235 231.231 154.235 231.103 154.247 230.976C154.319 230.478 154.537 230.015 154.872 229.648C155.118 229.377 155.419 229.165 155.753 229.027C156.162 228.876 156.597 228.814 157.03 228.846H160.241L180.703 228.81L211.052 228.778H213.21C213.592 228.757 213.972 228.857 214.297 229.064C214.619 229.274 214.893 229.552 215.103 229.88C215.535 230.528 215.767 231.296 215.768 232.082C215.724 232.839 215.68 233.606 215.636 234.376C215.451 237.446 215.263 240.579 215.073 243.773C214.694 250.16 214.297 256.768 213.888 263.541L213.813 264.81C213.778 265.231 213.787 265.639 213.712 266.083C213.627 266.518 213.436 266.922 213.157 267.259C212.878 267.596 212.52 267.855 212.117 268.01C211.721 268.155 211.299 268.212 210.88 268.178H207.246H197.764L179.839 268.137L163.619 268.096H159.875H158.981C158.678 268.096 158.378 268.096 158.061 268.064C157.443 267.975 156.879 267.651 156.48 267.158C156.09 266.676 155.881 266.067 155.89 265.44C155.859 264.846 155.832 264.261 155.802 263.681C155.744 262.516 155.687 261.383 155.63 260.272C155.189 251.392 154.842 244.208 154.595 239.24C154.48 236.76 154.388 234.834 154.326 233.519C154.3 232.867 154.278 232.373 154.26 232.033C154.243 231.693 154.26 231.525 154.26 231.525C154.26 231.525 154.26 231.697 154.3 232.033C154.339 232.368 154.348 232.867 154.383 233.515C154.458 234.829 154.564 236.756 154.701 239.235C154.96 244.221 155.339 251.388 155.806 260.263C155.863 261.374 155.925 262.507 155.987 263.672C156.013 264.252 156.044 264.837 156.075 265.431C156.066 266.018 156.263 266.589 156.63 267.04C157.002 267.497 157.526 267.794 158.101 267.874C158.393 267.901 158.688 267.91 158.981 267.901H163.637H179.857L197.782 267.928H207.264H210.897C211.29 267.961 211.684 267.908 212.056 267.774C212.422 267.633 212.747 267.399 213.001 267.093C213.254 266.787 213.428 266.419 213.505 266.025C213.571 265.639 213.571 265.195 213.602 264.783L213.676 263.513C214.086 256.741 214.482 250.132 214.87 243.75C215.061 240.553 215.249 237.419 215.434 234.349C215.482 233.583 215.526 232.821 215.57 232.06C215.567 231.322 215.349 230.602 214.945 229.993C214.771 229.683 214.519 229.426 214.217 229.249C213.914 229.072 213.571 228.981 213.223 228.987H211.069H180.72L160.259 228.955H157.048C156.623 228.921 156.195 228.978 155.793 229.123C155.403 229.277 155.059 229.534 154.795 229.867C154.531 230.2 154.356 230.598 154.287 231.022C154.266 231.175 154.253 231.329 154.247 231.484Z" fill="#263238"/>
<path d="M185.353 251.329C187.071 251.329 188.463 249.896 188.463 248.129C188.463 246.361 187.071 244.929 185.353 244.929C183.636 244.929 182.244 246.361 182.244 248.129C182.244 249.896 183.636 251.329 185.353 251.329Z" fill="white"/>
<path d="M188.463 248.129C188.441 248.129 188.463 247.843 188.322 247.358C188.14 246.674 187.74 246.072 187.186 245.65C186.81 245.357 186.372 245.162 185.909 245.078C185.38 244.983 184.836 245.033 184.332 245.223C183.773 245.431 183.288 245.807 182.94 246.302C182.585 246.802 182.384 247.4 182.362 248.019C182.341 248.638 182.5 249.249 182.82 249.774C183.14 250.299 183.605 250.713 184.155 250.962C184.706 251.212 185.317 251.286 185.909 251.175C186.372 251.092 186.81 250.896 187.186 250.604C187.739 250.182 188.139 249.582 188.322 248.9C188.45 248.415 188.441 248.124 188.463 248.129C188.475 248.196 188.475 248.265 188.463 248.333C188.466 248.531 188.443 248.73 188.397 248.922C188.237 249.642 187.84 250.282 187.274 250.735C186.851 251.075 186.351 251.299 185.821 251.386C185.291 251.473 184.749 251.421 184.244 251.234C183.772 251.061 183.347 250.776 183.001 250.403C182.656 250.03 182.4 249.579 182.255 249.086C182.109 248.593 182.078 248.071 182.163 247.564C182.249 247.056 182.448 246.576 182.746 246.162C183.122 245.633 183.644 245.233 184.244 245.015C184.784 244.816 185.367 244.77 185.931 244.883C186.413 244.983 186.866 245.199 187.252 245.514C187.82 245.965 188.217 246.606 188.375 247.327C188.422 247.518 188.444 247.714 188.441 247.911C188.461 247.982 188.468 248.056 188.463 248.129Z" fill="#263238"/>
<path d="M156.026 235.26C156.087 235.26 156.351 240.994 156.607 248.07C156.862 255.146 157.02 260.884 156.959 260.884C156.897 260.884 156.646 255.146 156.378 248.074C156.109 241.003 155.964 235.265 156.026 235.26Z" fill="#263238"/>
<path d="M140.153 190.738C139.841 190.467 141.197 185.109 141.197 185.109C141.197 185.109 137.612 179.094 137.52 177.154C137.427 175.213 138.933 171.234 138.933 171.234L149.208 168.514C149.208 168.514 152.511 174.824 153.172 177.054C153.833 179.284 152.04 186.854 152.04 186.854L150.279 190.738C150.279 190.738 145.046 195.008 140.153 190.738Z" fill="#936760"/>
<path d="M137.538 178.314C137.136 177.551 136.774 176.765 136.455 175.961C135.807 174.375 135.006 172.816 136.455 171.927C136.681 171.774 136.936 171.673 137.204 171.63C137.471 171.587 137.744 171.603 138.005 171.678C138.005 171.678 137.785 170.318 138.56 169.838C138.785 169.693 139.041 169.605 139.306 169.581C139.571 169.557 139.837 169.599 140.084 169.702C140.084 169.702 139.837 167.816 140.965 167.018C141.384 166.733 141.873 166.574 142.375 166.559C142.878 166.543 143.374 166.673 143.81 166.932C143.81 166.932 142.929 158.678 142.849 158.243C142.568 156.638 143.145 155.215 144.695 155.613C145.263 155.759 145.576 156.375 146.245 159.063C146.915 161.751 147.985 166.338 147.985 166.338C147.985 166.338 149.79 169.566 150.627 171.324C151.464 173.083 153.168 177.063 153.309 178.124C153.67 180.843 152.116 184.47 152.116 184.47L141.194 185.122L137.538 178.314Z" fill="#936760"/>
<path d="M138.221 172.031C138.532 172.414 138.815 172.82 139.066 173.246L139.947 174.606C140.126 174.874 140.283 175.156 140.418 175.449C140.572 175.784 140.617 176.161 140.546 176.524C140.513 176.713 140.431 176.89 140.31 177.037C140.188 177.183 140.031 177.294 139.855 177.358C139.525 177.442 139.176 177.397 138.877 177.231C138.62 177.104 138.375 176.952 138.146 176.777C137.934 176.619 137.736 176.465 137.56 176.324C137.203 176.039 136.93 175.794 136.745 175.617C136.56 175.44 136.463 175.34 136.472 175.327C136.481 175.313 136.913 175.658 137.657 176.188C138.073 176.51 138.515 176.796 138.978 177.04C139.231 177.177 139.524 177.214 139.802 177.145C139.94 177.093 140.063 177.004 140.157 176.886C140.251 176.769 140.312 176.628 140.335 176.478C140.391 176.172 140.352 175.855 140.225 175.572C140.098 175.289 139.951 175.016 139.784 174.756L138.961 173.396C138.677 172.963 138.43 172.507 138.221 172.031Z" fill="#6F4C47"/>
<path d="M147.178 173.015C147.084 172.425 147.123 171.82 147.292 171.247C147.391 170.657 147.625 170.099 147.974 169.62C148.036 169.652 147.732 170.373 147.534 171.302C147.336 172.231 147.248 173.015 147.178 173.015Z" fill="#6F4C47"/>
<path d="M151.512 175.426C150.504 174.422 149.234 173.74 147.857 173.464C146.485 173.192 145.082 173.137 143.695 173.3C142.585 173.405 141.312 173.699 140.81 174.724C140.308 175.748 140.916 177.135 141.898 177.738C142.88 178.341 144.1 178.368 145.249 178.264C146.399 178.16 147.544 177.938 148.68 178.119" fill="#936760"/>
<path d="M148.679 178.119C148.679 178.119 148.371 178.087 147.799 178.119C147.016 178.154 146.235 178.23 145.46 178.346C144.915 178.417 144.366 178.442 143.817 178.418C143.178 178.396 142.55 178.234 141.976 177.942C141.336 177.595 140.848 177.01 140.611 176.306C140.485 175.93 140.458 175.527 140.532 175.136C140.626 174.734 140.836 174.371 141.135 174.094C141.742 173.611 142.471 173.32 143.236 173.255C143.924 173.172 144.617 173.13 145.31 173.128C146.49 173.106 147.664 173.289 148.785 173.668C149.539 173.929 150.244 174.321 150.868 174.828C151.039 174.967 151.199 175.119 151.348 175.282C151.404 175.334 151.453 175.393 151.494 175.458C151.494 175.458 151.265 175.245 150.815 174.91C150.181 174.44 149.478 174.077 148.732 173.836C147.626 173.485 146.472 173.323 145.315 173.355C144.63 173.363 143.946 173.41 143.267 173.496C142.548 173.555 141.861 173.827 141.289 174.28C141.026 174.519 140.84 174.835 140.756 175.186C140.688 175.535 140.71 175.897 140.822 176.233C141.039 176.885 141.487 177.428 142.078 177.752C142.627 178.031 143.227 178.185 143.839 178.205C144.377 178.236 144.916 178.222 145.451 178.164C146.234 178.059 147.022 178.006 147.812 178.006C148.026 178.016 148.239 178.037 148.45 178.069C148.529 178.074 148.606 178.091 148.679 178.119Z" fill="#6F4C47"/>
<path d="M138.299 172.163C139.448 173.976 140.461 175.934 141.43 177.838C141.662 178.421 142.042 178.929 142.531 179.307C142.945 179.57 143.971 179.094 144.434 178.931L141.276 171.542" fill="#936760"/>
<path d="M141.276 171.542C141.386 171.715 141.481 171.899 141.558 172.091L142.254 173.641C142.84 174.955 143.641 176.814 144.535 178.885L144.588 178.999L144.469 179.044C144.13 179.166 143.764 179.325 143.368 179.429C143.209 179.47 143.047 179.494 142.884 179.502C142.798 179.506 142.711 179.497 142.628 179.474C142.541 179.452 142.46 179.411 142.39 179.352C142.136 179.164 141.919 178.927 141.752 178.654C141.43 178.128 141.201 177.602 140.941 177.117C140.448 176.134 139.994 175.254 139.598 174.52C139.202 173.786 138.876 173.201 138.642 172.798C138.514 172.595 138.399 172.383 138.299 172.163C138.457 172.345 138.597 172.542 138.717 172.752C138.973 173.138 139.329 173.713 139.739 174.439C140.149 175.164 140.62 176.034 141.131 177.013C141.391 177.498 141.633 178.033 141.941 178.527C142.094 178.773 142.29 178.988 142.518 179.162C142.64 179.227 142.774 179.264 142.91 179.27C143.047 179.276 143.184 179.252 143.311 179.198C143.685 179.103 144.042 178.949 144.394 178.822L144.315 178.994C143.434 176.904 142.65 175.05 142.113 173.718L141.479 172.14C141.394 171.948 141.326 171.747 141.276 171.542Z" fill="#6F4C47"/>
<path d="M140.426 169.344C141.439 171.964 142.453 174.582 143.469 177.199C143.654 177.769 143.931 178.302 144.288 178.776C144.469 179.012 144.703 179.198 144.971 179.318C145.238 179.437 145.53 179.486 145.821 179.461C146.614 179.343 147.142 178.477 147.173 177.648C147.149 176.82 146.953 176.007 146.6 175.264C145.69 172.874 144.961 170.416 144.42 167.911" fill="#936760"/>
<path d="M144.42 167.916C144.451 167.994 144.476 168.074 144.495 168.156C144.544 168.337 144.601 168.569 144.676 168.85C144.834 169.453 145.063 170.323 145.385 171.388C145.706 172.453 146.12 173.709 146.644 175.078C146.969 175.795 147.184 176.559 147.283 177.344C147.312 177.775 147.232 178.206 147.05 178.595C146.863 179.002 146.539 179.324 146.138 179.502C145.929 179.58 145.707 179.611 145.485 179.592C145.264 179.574 145.05 179.505 144.856 179.393C144.495 179.186 144.191 178.886 143.975 178.523C143.611 177.839 143.304 177.124 143.055 176.388C142.535 175.028 142.068 173.786 141.668 172.739C141.267 171.692 140.981 170.88 140.752 170.268L140.509 169.593C140.478 169.514 140.456 169.432 140.443 169.348C140.488 169.419 140.525 169.495 140.553 169.575L140.835 170.232C141.078 170.84 141.412 171.669 141.817 172.675C142.223 173.682 142.698 174.942 143.253 176.302C143.501 177.021 143.806 177.718 144.165 178.387C144.365 178.719 144.646 178.991 144.98 179.175C145.144 179.271 145.327 179.329 145.516 179.345C145.704 179.361 145.894 179.336 146.072 179.271C146.423 179.113 146.705 178.827 146.865 178.468C147.03 178.116 147.103 177.725 147.076 177.335C146.978 176.581 146.772 175.846 146.464 175.155C145.949 173.795 145.548 172.503 145.248 171.433C144.949 170.364 144.737 169.475 144.605 168.868C144.544 168.56 144.495 168.324 144.469 168.161C144.44 168.082 144.424 168 144.42 167.916Z" fill="#6F4C47"/>
<path d="M140.669 187.761C140.669 187.761 133.702 208.911 133.425 209.944C133.147 210.978 134.803 218.534 137.829 220.325C140.854 222.115 146.725 214.663 147.456 211.925C148.187 209.187 147.456 204.564 147.456 204.564L152.155 186.346" fill="#936760"/>
<path d="M147.455 184.474C147.233 184.503 147.007 184.474 146.799 184.388C146.284 184.223 145.812 183.943 145.416 183.568C145.014 183.191 144.701 182.726 144.5 182.208C144.397 182.002 144.348 181.772 144.359 181.541C144.649 182.228 145.06 182.853 145.57 183.386C146.127 183.867 146.766 184.236 147.455 184.474Z" fill="#6F4C47"/>
<path d="M159.042 135.361H109.614C108.327 135.361 107.284 136.435 107.284 137.759V151.865C107.284 153.19 108.327 154.263 109.614 154.263H159.042C160.328 154.263 161.371 153.19 161.371 151.865V137.759C161.371 136.435 160.328 135.361 159.042 135.361Z" fill="#2388C6"/>
<path d="M161.719 154.258H114.186C113.531 154.251 112.905 153.979 112.445 153.5C111.984 153.022 111.725 152.376 111.724 151.702V137.85C111.725 137.172 111.987 136.522 112.452 136.043C112.918 135.564 113.549 135.294 114.208 135.293H161.719C162.378 135.294 163.009 135.564 163.475 136.043C163.94 136.522 164.202 137.172 164.203 137.85V151.702C164.202 152.38 163.94 153.029 163.475 153.508C163.009 153.987 162.378 154.257 161.719 154.258ZM114.186 135.746C113.648 135.754 113.134 135.978 112.756 136.372C112.378 136.765 112.165 137.296 112.164 137.85V151.702C112.164 152.26 112.379 152.795 112.763 153.189C113.146 153.584 113.666 153.805 114.208 153.805H161.719C162.261 153.805 162.781 153.584 163.164 153.189C163.548 152.795 163.763 152.26 163.763 151.702V137.85C163.762 137.292 163.546 136.758 163.163 136.364C162.78 135.97 162.261 135.748 161.719 135.746H114.186Z" fill="#2388C6"/>
<path d="M162.2 153.841C161.834 153.497 161.522 153.096 161.275 152.654C160.964 152.256 160.714 151.811 160.535 151.335C160.902 151.68 161.215 152.08 161.464 152.522C161.775 152.92 162.024 153.365 162.2 153.841Z" fill="#2388C6"/>
<path d="M163.982 139.232C163.437 138.662 162.948 138.036 162.525 137.365C162.04 136.74 161.614 136.069 161.252 135.361C161.798 135.932 162.286 136.557 162.71 137.229C163.196 137.853 163.622 138.524 163.982 139.232Z" fill="#2388C6"/>
<path d="M163.794 151.344C163.728 151.394 163.067 150.437 162.345 149.159C161.979 148.533 161.658 147.962 161.433 147.545C161.294 147.328 161.178 147.096 161.09 146.852C161.156 146.806 161.817 147.786 162.539 149.037C162.904 149.662 163.226 150.233 163.455 150.65C163.595 150.867 163.709 151.099 163.794 151.344Z" fill="#2388C6"/>
<path d="M163.997 147.382C163.931 147.432 163.226 146.376 162.446 145.029C162.054 144.354 161.706 143.742 161.46 143.293C161.312 143.06 161.188 142.81 161.09 142.55C161.156 142.505 161.861 143.561 162.645 144.907C163.036 145.578 163.38 146.194 163.627 146.639C163.776 146.872 163.9 147.121 163.997 147.382Z" fill="#2388C6"/>
<path d="M163.992 143.47C163.926 143.52 163.217 142.455 162.433 141.104C162.036 140.429 161.688 139.808 161.442 139.359C161.291 139.125 161.165 138.874 161.067 138.611C161.133 138.566 161.843 139.627 162.626 140.982C163.023 141.657 163.371 142.274 163.617 142.727C163.77 142.959 163.895 143.209 163.992 143.47Z" fill="#2388C6"/>
<path d="M105.95 138.289C105.003 138.157 104.068 137.947 103.153 137.659C102.22 137.447 101.304 137.159 100.414 136.798C101.361 136.929 102.297 137.14 103.211 137.428C104.145 137.639 105.061 137.927 105.95 138.289Z" fill="#263238"/>
<path d="M106.483 134.885C105.449 133.776 104.471 132.612 103.554 131.399C102.577 130.241 101.659 129.03 100.806 127.773C101.838 128.885 102.816 130.05 103.734 131.263C104.709 132.422 105.626 133.631 106.483 134.885Z" fill="#263238"/>
<path d="M110.565 133.244C110.248 132.484 110.045 131.678 109.962 130.855C109.803 130.044 109.771 129.211 109.866 128.389C109.932 128.389 109.993 129.486 110.187 130.823C110.38 132.16 110.631 133.212 110.565 133.244Z" fill="#263238"/>
<g clip-path="url(#clip0_292_2288)">
<path d="M133.717 144.185C135.235 144.185 136.465 142.919 136.465 141.356C136.465 139.794 135.235 138.528 133.717 138.528C132.199 138.528 130.968 139.794 130.968 141.356C130.968 142.919 132.199 144.185 133.717 144.185Z" fill="white"/>
<path d="M133.957 145.607C132.081 145.536 128.22 146.498 128.22 148.429V149.136C128.22 149.525 128.529 149.843 128.907 149.843H134.775C133.078 147.891 133.93 145.677 133.957 145.607Z" fill="white"/>
<path d="M140.196 148.443C140.519 147.877 140.677 147.191 140.526 146.448C140.293 145.288 139.344 144.362 138.204 144.213C136.397 143.973 134.871 145.536 135.112 147.396C135.263 148.57 136.156 149.546 137.283 149.786C138.004 149.942 138.671 149.779 139.221 149.447L140.499 150.762C140.767 151.038 141.2 151.038 141.468 150.762C141.736 150.486 141.736 150.041 141.468 149.765L140.196 148.443ZM137.84 148.428C137.084 148.428 136.465 147.792 136.465 147.014C136.465 146.236 137.084 145.6 137.84 145.6C138.595 145.6 139.214 146.236 139.214 147.014C139.214 147.792 138.595 148.428 137.84 148.428Z" fill="white"/>
</g>
</g>
<defs>
<filter id="filter0_d_292_2288" x="0" y="0" width="386" height="376.222" filterUnits="userSpaceOnUse" color-interpolation-filters="sRGB">
<feFlood flood-opacity="0" result="BackgroundImageFix"/>
<feColorMatrix in="SourceAlpha" type="matrix" values="0 0 0 0 0 0 0 0 0 0 0 0 0 0 0 0 0 0 127 0" result="hardAlpha"/>
<feOffset dx="12" dy="20"/>
<feGaussianBlur stdDeviation="16"/>
<feComposite in2="hardAlpha" operator="out"/>
<feColorMatrix type="matrix" values="0 0 0 0 0.101961 0 0 0 0 0.101961 0 0 0 0 0.101961 0 0 0 0.12 0"/>
<feBlend mode="normal" in2="BackgroundImageFix" result="effect1_dropShadow_292_2288"/>
<feBlend mode="normal" in="SourceGraphic" in2="effect1_dropShadow_292_2288" result="shape"/>
</filter>
<linearGradient id="paint0_linear_292_2288" x1="84.3988" y1="17.4959" x2="180.103" y2="275.873" gradientUnits="userSpaceOnUse">
<stop offset="0.121941" stop-color="#2388C6"/>
<stop offset="0.46229" stop-color="#0069AA"/>
<stop offset="1" stop-color="#0082D1"/>
</linearGradient>
<clipPath id="clip0_292_2288">
<rect width="16.4913" height="16.9731" fill="white" transform="translate(126.846 135.699)"/>
</clipPath>
</defs>
</svg>
